<svg xmlns="http://www.w3.org/2000/svg" viewBox="0 0 400 320" width="400" height="320">
  <defs>
    <filter id="glow">
      <feGaussianBlur stdDeviation="2" result="coloredBlur"/>
      <feMerge><feMergeNode in="coloredBlur"/><feMergeNode in="SourceGraphic"/></feMerge>
    </filter>
  </defs>
  <!-- Background -->
  <rect width="400" height="320" fill="#1F3F6B"/>
  <!-- Subtle grid texture -->
  <pattern id="grid" width="40" height="40" patternUnits="userSpaceOnUse">
    <path d="M 40 0 L 0 0 0 40" fill="none" stroke="rgba(255,255,255,0.04)" stroke-width="0.5"/>
  </pattern>
  <rect width="400" height="320" fill="url(#grid)"/>

  <!-- Main tower -->
  <rect x="145" y="80" width="110" height="195" fill="rgba(255,255,255,0.12)" stroke="#FFFFFF" stroke-width="2" rx="2"/>
  <!-- Facade vertical lines -->
  <line x1="195" y1="80" x2="195" y2="275" stroke="rgba(255,255,255,0.2)" stroke-width="1"/>
  <line x1="220" y1="80" x2="220" y2="275" stroke="rgba(255,255,255,0.2)" stroke-width="1"/>
  <!-- Windows 4 cols x 9 rows -->
  
  <rect x="155" y="90" width="18" height="14" fill="rgba(200,168,75,0.9)" rx="1"/>
  <rect x="177" y="90" width="18" height="14" fill="rgba(200,168,75,0.9)" rx="1"/>
  <rect x="199" y="90" width="18" height="14" fill="rgba(255,255,255,0.7)" rx="1"/>
  <rect x="221" y="90" width="18" height="14" fill="rgba(255,255,255,0.7)" rx="1"/>
  <rect x="155" y="108" width="18" height="14" fill="rgba(255,255,255,0.7)" rx="1"/>
  <rect x="177" y="108" width="18" height="14" fill="rgba(255,255,255,0.7)" rx="1"/>
  <rect x="199" y="108" width="18" height="14" fill="rgba(200,168,75,0.9)" rx="1"/>
  <rect x="221" y="108" width="18" height="14" fill="rgba(255,255,255,0.7)" rx="1"/>
  <rect x="155" y="126" width="18" height="14" fill="rgba(255,255,255,0.7)" rx="1"/>
  <rect x="177" y="126" width="18" height="14" fill="rgba(200,168,75,0.9)" rx="1"/>
  <rect x="199" y="126" width="18" height="14" fill="rgba(255,255,255,0.7)" rx="1"/>
  <rect x="221" y="126" width="18" height="14" fill="rgba(255,255,255,0.7)" rx="1"/>
  <rect x="155" y="144" width="18" height="14" fill="rgba(200,168,75,0.9)" rx="1"/>
  <rect x="177" y="144" width="18" height="14" fill="rgba(255,255,255,0.7)" rx="1"/>
  <rect x="199" y="144" width="18" height="14" fill="rgba(200,168,75,0.9)" rx="1"/>
  <rect x="221" y="144" width="18" height="14" fill="rgba(255,255,255,0.7)" rx="1"/>
  <rect x="155" y="162" width="18" height="14" fill="rgba(255,255,255,0.7)" rx="1"/>
  <rect x="177" y="162" width="18" height="14" fill="rgba(255,255,255,0.7)" rx="1"/>
  <rect x="199" y="162" width="18" height="14" fill="rgba(255,255,255,0.7)" rx="1"/>
  <rect x="221" y="162" width="18" height="14" fill="rgba(255,255,255,0.7)" rx="1"/>
  <rect x="155" y="180" width="18" height="14" fill="rgba(255,255,255,0.7)" rx="1"/>
  <rect x="177" y="180" width="18" height="14" fill="rgba(255,255,255,0.7)" rx="1"/>
  <rect x="199" y="180" width="18" height="14" fill="rgba(255,255,255,0.7)" rx="1"/>
  <rect x="221" y="180" width="18" height="14" fill="rgba(255,255,255,0.7)" rx="1"/>
  <rect x="155" y="198" width="18" height="14" fill="rgba(255,255,255,0.7)" rx="1"/>
  <rect x="177" y="198" width="18" height="14" fill="rgba(255,255,255,0.7)" rx="1"/>
  <rect x="199" y="198" width="18" height="14" fill="rgba(255,255,255,0.7)" rx="1"/>
  <rect x="221" y="198" width="18" height="14" fill="rgba(255,255,255,0.7)" rx="1"/>
  <rect x="155" y="216" width="18" height="14" fill="rgba(255,255,255,0.7)" rx="1"/>
  <rect x="177" y="216" width="18" height="14" fill="rgba(255,255,255,0.7)" rx="1"/>
  <rect x="199" y="216" width="18" height="14" fill="rgba(255,255,255,0.7)" rx="1"/>
  <rect x="221" y="216" width="18" height="14" fill="rgba(255,255,255,0.7)" rx="1"/>
  <rect x="155" y="234" width="18" height="14" fill="rgba(255,255,255,0.7)" rx="1"/>
  <rect x="177" y="234" width="18" height="14" fill="rgba(255,255,255,0.7)" rx="1"/>
  <rect x="199" y="234" width="18" height="14" fill="rgba(255,255,255,0.7)" rx="1"/>
  <rect x="221" y="234" width="18" height="14" fill="rgba(255,255,255,0.7)" rx="1"/>
  <!-- Entrance canopy -->
  <path d="M155,275 L245,275 L252,265 L148,265 Z" fill="rgba(255,255,255,0.25)" stroke="#FFFFFF" stroke-width="1.5"/>
  <rect x="185" y="255" width="30" height="20" fill="rgba(255,255,255,0.1)" stroke="#FFFFFF" stroke-width="1.5"/>
  <!-- Side wing left -->
  <rect x="85" y="145" width="60" height="130" fill="rgba(255,255,255,0.08)" stroke="#FFFFFF" stroke-width="1.5" rx="1"/>
  
  <rect x="92" y="155" width="12" height="12" fill="rgba(200,168,75,0.9)" rx="1"/>
  <rect x="108" y="155" width="12" height="12" fill="rgba(200,168,75,0.9)" rx="1"/>
  <rect x="124" y="155" width="12" height="12" fill="rgba(255,255,255,0.7)" rx="1"/>
  <rect x="92" y="171" width="12" height="12" fill="rgba(255,255,255,0.7)" rx="1"/>
  <rect x="108" y="171" width="12" height="12" fill="rgba(255,255,255,0.7)" rx="1"/>
  <rect x="124" y="171" width="12" height="12" fill="rgba(200,168,75,0.9)" rx="1"/>
  <rect x="92" y="187" width="12" height="12" fill="rgba(255,255,255,0.7)" rx="1"/>
  <rect x="108" y="187" width="12" height="12" fill="rgba(200,168,75,0.9)" rx="1"/>
  <rect x="124" y="187" width="12" height="12" fill="rgba(255,255,255,0.7)" rx="1"/>
  <rect x="92" y="203" width="12" height="12" fill="rgba(200,168,75,0.9)" rx="1"/>
  <rect x="108" y="203" width="12" height="12" fill="rgba(255,255,255,0.7)" rx="1"/>
  <rect x="124" y="203" width="12" height="12" fill="rgba(200,168,75,0.9)" rx="1"/>
  <rect x="92" y="219" width="12" height="12" fill="rgba(255,255,255,0.7)" rx="1"/>
  <rect x="108" y="219" width="12" height="12" fill="rgba(255,255,255,0.7)" rx="1"/>
  <rect x="124" y="219" width="12" height="12" fill="rgba(255,255,255,0.7)" rx="1"/>
  <rect x="92" y="235" width="12" height="12" fill="rgba(255,255,255,0.7)" rx="1"/>
  <rect x="108" y="235" width="12" height="12" fill="rgba(255,255,255,0.7)" rx="1"/>
  <rect x="124" y="235" width="12" height="12" fill="rgba(255,255,255,0.7)" rx="1"/>
  <!-- Side wing right -->
  <rect x="255" y="145" width="60" height="130" fill="rgba(255,255,255,0.08)" stroke="#FFFFFF" stroke-width="1.5" rx="1"/>
  
  <rect x="262" y="155" width="12" height="12" fill="rgba(200,168,75,0.9)" rx="1"/>
  <rect x="278" y="155" width="12" height="12" fill="rgba(200,168,75,0.9)" rx="1"/>
  <rect x="294" y="155" width="12" height="12" fill="rgba(255,255,255,0.7)" rx="1"/>
  <rect x="262" y="171" width="12" height="12" fill="rgba(255,255,255,0.7)" rx="1"/>
  <rect x="278" y="171" width="12" height="12" fill="rgba(255,255,255,0.7)" rx="1"/>
  <rect x="294" y="171" width="12" height="12" fill="rgba(200,168,75,0.9)" rx="1"/>
  <rect x="262" y="187" width="12" height="12" fill="rgba(255,255,255,0.7)" rx="1"/>
  <rect x="278" y="187" width="12" height="12" fill="rgba(200,168,75,0.9)" rx="1"/>
  <rect x="294" y="187" width="12" height="12" fill="rgba(255,255,255,0.7)" rx="1"/>
  <rect x="262" y="203" width="12" height="12" fill="rgba(200,168,75,0.9)" rx="1"/>
  <rect x="278" y="203" width="12" height="12" fill="rgba(255,255,255,0.7)" rx="1"/>
  <rect x="294" y="203" width="12" height="12" fill="rgba(200,168,75,0.9)" rx="1"/>
  <rect x="262" y="219" width="12" height="12" fill="rgba(255,255,255,0.7)" rx="1"/>
  <rect x="278" y="219" width="12" height="12" fill="rgba(255,255,255,0.7)" rx="1"/>
  <rect x="294" y="219" width="12" height="12" fill="rgba(255,255,255,0.7)" rx="1"/>
  <rect x="262" y="235" width="12" height="12" fill="rgba(255,255,255,0.7)" rx="1"/>
  <rect x="278" y="235" width="12" height="12" fill="rgba(255,255,255,0.7)" rx="1"/>
  <rect x="294" y="235" width="12" height="12" fill="rgba(255,255,255,0.7)" rx="1"/>
  <!-- Rooftop elements -->
  <rect x="175" y="68" width="15" height="14" fill="rgba(255,255,255,0.3)" stroke="#FFFFFF" stroke-width="1"/>
  <rect x="210" y="68" width="15" height="14" fill="rgba(255,255,255,0.3)" stroke="#FFFFFF" stroke-width="1"/>
  <line x1="200" y1="55" x2="200" y2="70" stroke="#C8A84B" stroke-width="2"/>
  <circle cx="200" cy="52" r="4" fill="#C8A84B"/>
  <!-- Ground -->
    <line x1="30" y1="276" x2="370" y2="276" stroke="rgba(255,255,255,0.3)" stroke-width="1.5"/>
  <!-- Steps -->
  <rect x="165" y="271" width="70" height="5" fill="rgba(255,255,255,0.2)" stroke="#FFFFFF" stroke-width="1"/>
  <rect x="170" y="267" width="60" height="5" fill="rgba(255,255,255,0.15)" stroke="#FFFFFF" stroke-width="1"/>
  <!-- Trees -->
  
  <rect x="68" y="263.5" width="4" height="12.5" fill="rgba(255,255,255,0.5)"/>
  <polygon points="70,226 59.0,263.5 81.0,263.5" fill="rgba(255,255,255,0.7)"/>
  <polygon points="70,233.5 60.1,253.5 79.9,253.5" fill="rgba(255,255,255,0.5)"/>
  
  <rect x="328" y="263.5" width="4" height="12.5" fill="rgba(255,255,255,0.5)"/>
  <polygon points="330,226 319.0,263.5 341.0,263.5" fill="rgba(255,255,255,0.7)"/>
  <polygon points="330,233.5 320.1,253.5 339.9,253.5" fill="rgba(255,255,255,0.5)"/>
  <!-- "CORPORATE PLAZA" sign band -->
  <rect x="155" y="140" width="90" height="16" fill="#C8A84B" rx="2"/>
  <text x="200" y="152" text-anchor="middle" font-family="Georgia,serif" font-size="7" fill="#1F3F6B" font-weight="bold" letter-spacing="1">CORPORATE PLAZA</text>

</svg>