<svg xmlns="http://www.w3.org/2000/svg" viewBox="0 0 400 320" width="400" height="320">
  <defs>
    <filter id="glow">
      <feGaussianBlur stdDeviation="2" result="coloredBlur"/>
      <feMerge><feMergeNode in="coloredBlur"/><feMergeNode in="SourceGraphic"/></feMerge>
    </filter>
  </defs>
  <!-- Background -->
  <rect width="400" height="320" fill="#1F3F6B"/>
  <!-- Subtle grid texture -->
  <pattern id="grid" width="40" height="40" patternUnits="userSpaceOnUse">
    <path d="M 40 0 L 0 0 0 40" fill="none" stroke="rgba(255,255,255,0.04)" stroke-width="0.5"/>
  </pattern>
  <rect width="400" height="320" fill="url(#grid)"/>

  <!-- Central IT block (horizontal slab style) -->
  <rect x="60" y="140" width="280" height="110" fill="rgba(255,255,255,0.1)" stroke="#FFFFFF" stroke-width="2" rx="3"/>
  <!-- Large glass curtain wall sections -->
  <rect x="70" y="150" width="80" height="90" fill="rgba(100,180,255,0.2)" stroke="rgba(255,255,255,0.5)" stroke-width="1"/>
  <rect x="165" y="150" width="80" height="90" fill="rgba(100,180,255,0.2)" stroke="rgba(255,255,255,0.5)" stroke-width="1"/>
  <rect x="260" y="150" width="68" height="90" fill="rgba(100,180,255,0.2)" stroke="rgba(255,255,255,0.5)" stroke-width="1"/>
  <!-- Horizontal window bands -->
  
  <rect x="72" y="158" width="13" height="12" fill="rgba(200,168,75,0.9)" rx="1"/>
  <rect x="88" y="158" width="13" height="12" fill="rgba(200,168,75,0.9)" rx="1"/>
  <rect x="104" y="158" width="13" height="12" fill="rgba(255,255,255,0.7)" rx="1"/>
  <rect x="120" y="158" width="13" height="12" fill="rgba(255,255,255,0.7)" rx="1"/>
  <rect x="136" y="158" width="13" height="12" fill="rgba(255,255,255,0.7)" rx="1"/>
  <rect x="72" y="173" width="13" height="12" fill="rgba(255,255,255,0.7)" rx="1"/>
  <rect x="88" y="173" width="13" height="12" fill="rgba(255,255,255,0.7)" rx="1"/>
  <rect x="104" y="173" width="13" height="12" fill="rgba(200,168,75,0.9)" rx="1"/>
  <rect x="120" y="173" width="13" height="12" fill="rgba(255,255,255,0.7)" rx="1"/>
  <rect x="136" y="173" width="13" height="12" fill="rgba(255,255,255,0.7)" rx="1"/>
  <rect x="72" y="188" width="13" height="12" fill="rgba(255,255,255,0.7)" rx="1"/>
  <rect x="88" y="188" width="13" height="12" fill="rgba(200,168,75,0.9)" rx="1"/>
  <rect x="104" y="188" width="13" height="12" fill="rgba(255,255,255,0.7)" rx="1"/>
  <rect x="120" y="188" width="13" height="12" fill="rgba(255,255,255,0.7)" rx="1"/>
  <rect x="136" y="188" width="13" height="12" fill="rgba(255,255,255,0.7)" rx="1"/>
  <rect x="72" y="203" width="13" height="12" fill="rgba(200,168,75,0.9)" rx="1"/>
  <rect x="88" y="203" width="13" height="12" fill="rgba(255,255,255,0.7)" rx="1"/>
  <rect x="104" y="203" width="13" height="12" fill="rgba(200,168,75,0.9)" rx="1"/>
  <rect x="120" y="203" width="13" height="12" fill="rgba(255,255,255,0.7)" rx="1"/>
  <rect x="136" y="203" width="13" height="12" fill="rgba(255,255,255,0.7)" rx="1"/>
  <rect x="72" y="218" width="13" height="12" fill="rgba(255,255,255,0.7)" rx="1"/>
  <rect x="88" y="218" width="13" height="12" fill="rgba(255,255,255,0.7)" rx="1"/>
  <rect x="104" y="218" width="13" height="12" fill="rgba(255,255,255,0.7)" rx="1"/>
  <rect x="120" y="218" width="13" height="12" fill="rgba(255,255,255,0.7)" rx="1"/>
  <rect x="136" y="218" width="13" height="12" fill="rgba(255,255,255,0.7)" rx="1"/>
  
  <rect x="167" y="158" width="13" height="12" fill="rgba(200,168,75,0.9)" rx="1"/>
  <rect x="183" y="158" width="13" height="12" fill="rgba(200,168,75,0.9)" rx="1"/>
  <rect x="199" y="158" width="13" height="12" fill="rgba(255,255,255,0.7)" rx="1"/>
  <rect x="215" y="158" width="13" height="12" fill="rgba(255,255,255,0.7)" rx="1"/>
  <rect x="231" y="158" width="13" height="12" fill="rgba(255,255,255,0.7)" rx="1"/>
  <rect x="167" y="173" width="13" height="12" fill="rgba(255,255,255,0.7)" rx="1"/>
  <rect x="183" y="173" width="13" height="12" fill="rgba(255,255,255,0.7)" rx="1"/>
  <rect x="199" y="173" width="13" height="12" fill="rgba(200,168,75,0.9)" rx="1"/>
  <rect x="215" y="173" width="13" height="12" fill="rgba(255,255,255,0.7)" rx="1"/>
  <rect x="231" y="173" width="13" height="12" fill="rgba(255,255,255,0.7)" rx="1"/>
  <rect x="167" y="188" width="13" height="12" fill="rgba(255,255,255,0.7)" rx="1"/>
  <rect x="183" y="188" width="13" height="12" fill="rgba(200,168,75,0.9)" rx="1"/>
  <rect x="199" y="188" width="13" height="12" fill="rgba(255,255,255,0.7)" rx="1"/>
  <rect x="215" y="188" width="13" height="12" fill="rgba(255,255,255,0.7)" rx="1"/>
  <rect x="231" y="188" width="13" height="12" fill="rgba(255,255,255,0.7)" rx="1"/>
  <rect x="167" y="203" width="13" height="12" fill="rgba(200,168,75,0.9)" rx="1"/>
  <rect x="183" y="203" width="13" height="12" fill="rgba(255,255,255,0.7)" rx="1"/>
  <rect x="199" y="203" width="13" height="12" fill="rgba(200,168,75,0.9)" rx="1"/>
  <rect x="215" y="203" width="13" height="12" fill="rgba(255,255,255,0.7)" rx="1"/>
  <rect x="231" y="203" width="13" height="12" fill="rgba(255,255,255,0.7)" rx="1"/>
  <rect x="167" y="218" width="13" height="12" fill="rgba(255,255,255,0.7)" rx="1"/>
  <rect x="183" y="218" width="13" height="12" fill="rgba(255,255,255,0.7)" rx="1"/>
  <rect x="199" y="218" width="13" height="12" fill="rgba(255,255,255,0.7)" rx="1"/>
  <rect x="215" y="218" width="13" height="12" fill="rgba(255,255,255,0.7)" rx="1"/>
  <rect x="231" y="218" width="13" height="12" fill="rgba(255,255,255,0.7)" rx="1"/>
  
  <rect x="262" y="158" width="12" height="12" fill="rgba(200,168,75,0.9)" rx="1"/>
  <rect x="277" y="158" width="12" height="12" fill="rgba(200,168,75,0.9)" rx="1"/>
  <rect x="292" y="158" width="12" height="12" fill="rgba(255,255,255,0.7)" rx="1"/>
  <rect x="307" y="158" width="12" height="12" fill="rgba(255,255,255,0.7)" rx="1"/>
  <rect x="262" y="173" width="12" height="12" fill="rgba(255,255,255,0.7)" rx="1"/>
  <rect x="277" y="173" width="12" height="12" fill="rgba(255,255,255,0.7)" rx="1"/>
  <rect x="292" y="173" width="12" height="12" fill="rgba(200,168,75,0.9)" rx="1"/>
  <rect x="307" y="173" width="12" height="12" fill="rgba(255,255,255,0.7)" rx="1"/>
  <rect x="262" y="188" width="12" height="12" fill="rgba(255,255,255,0.7)" rx="1"/>
  <rect x="277" y="188" width="12" height="12" fill="rgba(200,168,75,0.9)" rx="1"/>
  <rect x="292" y="188" width="12" height="12" fill="rgba(255,255,255,0.7)" rx="1"/>
  <rect x="307" y="188" width="12" height="12" fill="rgba(255,255,255,0.7)" rx="1"/>
  <rect x="262" y="203" width="12" height="12" fill="rgba(200,168,75,0.9)" rx="1"/>
  <rect x="277" y="203" width="12" height="12" fill="rgba(255,255,255,0.7)" rx="1"/>
  <rect x="292" y="203" width="12" height="12" fill="rgba(200,168,75,0.9)" rx="1"/>
  <rect x="307" y="203" width="12" height="12" fill="rgba(255,255,255,0.7)" rx="1"/>
  <rect x="262" y="218" width="12" height="12" fill="rgba(255,255,255,0.7)" rx="1"/>
  <rect x="277" y="218" width="12" height="12" fill="rgba(255,255,255,0.7)" rx="1"/>
  <rect x="292" y="218" width="12" height="12" fill="rgba(255,255,255,0.7)" rx="1"/>
  <rect x="307" y="218" width="12" height="12" fill="rgba(255,255,255,0.7)" rx="1"/>
  <!-- Upper tower block -->
  <rect x="155" y="75" width="90" height="70" fill="rgba(255,255,255,0.12)" stroke="#FFFFFF" stroke-width="2" rx="2"/>
  
  <rect x="163" y="83" width="16" height="12" fill="rgba(200,168,75,0.9)" rx="1"/>
  <rect x="183" y="83" width="16" height="12" fill="rgba(200,168,75,0.9)" rx="1"/>
  <rect x="203" y="83" width="16" height="12" fill="rgba(255,255,255,0.7)" rx="1"/>
  <rect x="223" y="83" width="16" height="12" fill="rgba(255,255,255,0.7)" rx="1"/>
  <rect x="163" y="99" width="16" height="12" fill="rgba(255,255,255,0.7)" rx="1"/>
  <rect x="183" y="99" width="16" height="12" fill="rgba(255,255,255,0.7)" rx="1"/>
  <rect x="203" y="99" width="16" height="12" fill="rgba(200,168,75,0.9)" rx="1"/>
  <rect x="223" y="99" width="16" height="12" fill="rgba(255,255,255,0.7)" rx="1"/>
  <rect x="163" y="115" width="16" height="12" fill="rgba(255,255,255,0.7)" rx="1"/>
  <rect x="183" y="115" width="16" height="12" fill="rgba(200,168,75,0.9)" rx="1"/>
  <rect x="203" y="115" width="16" height="12" fill="rgba(255,255,255,0.7)" rx="1"/>
  <rect x="223" y="115" width="16" height="12" fill="rgba(255,255,255,0.7)" rx="1"/>
  <rect x="163" y="131" width="16" height="12" fill="rgba(200,168,75,0.9)" rx="1"/>
  <rect x="183" y="131" width="16" height="12" fill="rgba(255,255,255,0.7)" rx="1"/>
  <rect x="203" y="131" width="16" height="12" fill="rgba(200,168,75,0.9)" rx="1"/>
  <rect x="223" y="131" width="16" height="12" fill="rgba(255,255,255,0.7)" rx="1"/>
  <!-- Antenna -->
  <line x1="200" y1="60" x2="200" y2="75" stroke="#C8A84B" stroke-width="2"/>
  <circle cx="200" cy="57" r="3" fill="#C8A84B"/>
  <!-- Satellite dish -->
  <path d="M215,68 Q225,62 218,75" stroke="#C8A84B" stroke-width="1.5" fill="none"/>
  <!-- Connecting bridges -->
  <rect x="140" y="118" width="15" height="8" fill="rgba(255,255,255,0.3)" stroke="#FFFFFF" stroke-width="1"/>
  <rect x="245" y="118" width="15" height="8" fill="rgba(255,255,255,0.3)" stroke="#FFFFFF" stroke-width="1"/>
  <!-- Sign band -->
  <rect x="60" y="225" width="280" height="18" fill="#C8A84B" rx="0 0 3 3"/>
  <text x="200" y="238" text-anchor="middle" font-family="Georgia,serif" font-size="8" fill="#1F3F6B" font-weight="bold" letter-spacing="2">SILICON PLAZA · IT PARK</text>
  <!-- Ground -->
    <line x1="30" y1="278" x2="370" y2="278" stroke="rgba(255,255,255,0.3)" stroke-width="1.5"/>
  <!-- Parking lot lines -->
  <line x1="80" y1="265" x2="80" y2="278" stroke="rgba(255,255,255,0.3)" stroke-width="1"/>
  <line x1="120" y1="265" x2="120" y2="278" stroke="rgba(255,255,255,0.3)" stroke-width="1"/>
  <line x1="160" y1="265" x2="160" y2="278" stroke="rgba(255,255,255,0.3)" stroke-width="1"/>
  <line x1="200" y1="265" x2="200" y2="278" stroke="rgba(255,255,255,0.3)" stroke-width="1"/>
  <line x1="240" y1="265" x2="240" y2="278" stroke="rgba(255,255,255,0.3)" stroke-width="1"/>
  <line x1="280" y1="265" x2="280" y2="278" stroke="rgba(255,255,255,0.3)" stroke-width="1"/>
  <line x1="320" y1="265" x2="320" y2="278" stroke="rgba(255,255,255,0.3)" stroke-width="1"/>
  <!-- Trees -->
  
  <rect x="38" y="266.75" width="4" height="11.25" fill="rgba(255,255,255,0.5)"/>
  <polygon points="40,233 31.0,266.75 49.0,266.75" fill="rgba(255,255,255,0.7)"/>
  <polygon points="40,239.75 31.9,257.75 48.1,257.75" fill="rgba(255,255,255,0.5)"/>
  
  <rect x="358" y="266.75" width="4" height="11.25" fill="rgba(255,255,255,0.5)"/>
  <polygon points="360,233 351.0,266.75 369.0,266.75" fill="rgba(255,255,255,0.7)"/>
  <polygon points="360,239.75 351.9,257.75 368.1,257.75" fill="rgba(255,255,255,0.5)"/>

</svg>