<svg xmlns="http://www.w3.org/2000/svg" viewBox="0 0 400 320" width="400" height="320">
  <defs>
    <filter id="glow">
      <feGaussianBlur stdDeviation="2" result="coloredBlur"/>
      <feMerge><feMergeNode in="coloredBlur"/><feMergeNode in="SourceGraphic"/></feMerge>
    </filter>
  </defs>
  <!-- Background -->
  <rect width="400" height="320" fill="#1F3F6B"/>
  <!-- Subtle grid texture -->
  <pattern id="grid" width="40" height="40" patternUnits="userSpaceOnUse">
    <path d="M 40 0 L 0 0 0 40" fill="none" stroke="rgba(255,255,255,0.04)" stroke-width="0.5"/>
  </pattern>
  <rect width="400" height="320" fill="url(#grid)"/>

  <!-- Title band -->
  <text x="200" y="42" text-anchor="middle" font-family="Georgia,serif" font-size="11" fill="#C8A84B" font-weight="bold" letter-spacing="2">EXPANSION · PRIDE VATIKA</text>
  <!-- City labels -->
  <text x="75" y="68" text-anchor="middle" font-family="Arial,sans-serif" font-size="8" fill="rgba(255,255,255,0.7)" letter-spacing="1">PUNE</text>
  <text x="200" y="68" text-anchor="middle" font-family="Arial,sans-serif" font-size="8" fill="rgba(255,255,255,0.7)" letter-spacing="1">MUMBAI</text>
  <text x="325" y="68" text-anchor="middle" font-family="Arial,sans-serif" font-size="8" fill="rgba(255,255,255,0.7)" letter-spacing="1">BANGALORE</text>
  <!-- Pune building -->
  <rect x="40" y="110" width="70" height="155" fill="rgba(255,255,255,0.1)" stroke="#FFFFFF" stroke-width="1.5" rx="2"/>
  
  <rect x="48" y="118" width="15" height="13" fill="rgba(200,168,75,0.9)" rx="1"/>
  <rect x="67" y="118" width="15" height="13" fill="rgba(200,168,75,0.9)" rx="1"/>
  <rect x="86" y="118" width="15" height="13" fill="rgba(255,255,255,0.7)" rx="1"/>
  <rect x="48" y="135" width="15" height="13" fill="rgba(255,255,255,0.7)" rx="1"/>
  <rect x="67" y="135" width="15" height="13" fill="rgba(255,255,255,0.7)" rx="1"/>
  <rect x="86" y="135" width="15" height="13" fill="rgba(200,168,75,0.9)" rx="1"/>
  <rect x="48" y="152" width="15" height="13" fill="rgba(255,255,255,0.7)" rx="1"/>
  <rect x="67" y="152" width="15" height="13" fill="rgba(200,168,75,0.9)" rx="1"/>
  <rect x="86" y="152" width="15" height="13" fill="rgba(255,255,255,0.7)" rx="1"/>
  <rect x="48" y="169" width="15" height="13" fill="rgba(200,168,75,0.9)" rx="1"/>
  <rect x="67" y="169" width="15" height="13" fill="rgba(255,255,255,0.7)" rx="1"/>
  <rect x="86" y="169" width="15" height="13" fill="rgba(200,168,75,0.9)" rx="1"/>
  <rect x="48" y="186" width="15" height="13" fill="rgba(255,255,255,0.7)" rx="1"/>
  <rect x="67" y="186" width="15" height="13" fill="rgba(255,255,255,0.7)" rx="1"/>
  <rect x="86" y="186" width="15" height="13" fill="rgba(255,255,255,0.7)" rx="1"/>
  <rect x="48" y="203" width="15" height="13" fill="rgba(255,255,255,0.7)" rx="1"/>
  <rect x="67" y="203" width="15" height="13" fill="rgba(255,255,255,0.7)" rx="1"/>
  <rect x="86" y="203" width="15" height="13" fill="rgba(255,255,255,0.7)" rx="1"/>
  <rect x="48" y="220" width="15" height="13" fill="rgba(255,255,255,0.7)" rx="1"/>
  <rect x="67" y="220" width="15" height="13" fill="rgba(255,255,255,0.7)" rx="1"/>
  <rect x="86" y="220" width="15" height="13" fill="rgba(255,255,255,0.7)" rx="1"/>
  <rect x="48" y="237" width="15" height="13" fill="rgba(255,255,255,0.7)" rx="1"/>
  <rect x="67" y="237" width="15" height="13" fill="rgba(255,255,255,0.7)" rx="1"/>
  <rect x="86" y="237" width="15" height="13" fill="rgba(255,255,255,0.7)" rx="1"/>
  <!-- Expansion arrows -->
  <path d="M118,175 L145,175" stroke="#C8A84B" stroke-width="2" marker-end="url(#arr)"/>
  <path d="M258,175 L285,175" stroke="#C8A84B" stroke-width="2" marker-end="url(#arr)"/>
  <defs>
    <marker id="arr" markerWidth="8" markerHeight="8" refX="7" refY="3" orient="auto">
      <path d="M0,0 L8,3 L0,6" fill="none" stroke="#C8A84B" stroke-width="1.5"/>
    </marker>
  </defs>
  <!-- Mumbai building - taller -->
  <rect x="155" y="90" width="90" height="175" fill="rgba(255,255,255,0.12)" stroke="#FFFFFF" stroke-width="1.5" rx="2"/>
  
  <rect x="163" y="98" width="16" height="13" fill="rgba(200,168,75,0.9)" rx="1"/>
  <rect x="183" y="98" width="16" height="13" fill="rgba(200,168,75,0.9)" rx="1"/>
  <rect x="203" y="98" width="16" height="13" fill="rgba(255,255,255,0.7)" rx="1"/>
  <rect x="223" y="98" width="16" height="13" fill="rgba(255,255,255,0.7)" rx="1"/>
  <rect x="163" y="115" width="16" height="13" fill="rgba(255,255,255,0.7)" rx="1"/>
  <rect x="183" y="115" width="16" height="13" fill="rgba(255,255,255,0.7)" rx="1"/>
  <rect x="203" y="115" width="16" height="13" fill="rgba(200,168,75,0.9)" rx="1"/>
  <rect x="223" y="115" width="16" height="13" fill="rgba(255,255,255,0.7)" rx="1"/>
  <rect x="163" y="132" width="16" height="13" fill="rgba(255,255,255,0.7)" rx="1"/>
  <rect x="183" y="132" width="16" height="13" fill="rgba(200,168,75,0.9)" rx="1"/>
  <rect x="203" y="132" width="16" height="13" fill="rgba(255,255,255,0.7)" rx="1"/>
  <rect x="223" y="132" width="16" height="13" fill="rgba(255,255,255,0.7)" rx="1"/>
  <rect x="163" y="149" width="16" height="13" fill="rgba(200,168,75,0.9)" rx="1"/>
  <rect x="183" y="149" width="16" height="13" fill="rgba(255,255,255,0.7)" rx="1"/>
  <rect x="203" y="149" width="16" height="13" fill="rgba(200,168,75,0.9)" rx="1"/>
  <rect x="223" y="149" width="16" height="13" fill="rgba(255,255,255,0.7)" rx="1"/>
  <rect x="163" y="166" width="16" height="13" fill="rgba(255,255,255,0.7)" rx="1"/>
  <rect x="183" y="166" width="16" height="13" fill="rgba(255,255,255,0.7)" rx="1"/>
  <rect x="203" y="166" width="16" height="13" fill="rgba(255,255,255,0.7)" rx="1"/>
  <rect x="223" y="166" width="16" height="13" fill="rgba(255,255,255,0.7)" rx="1"/>
  <rect x="163" y="183" width="16" height="13" fill="rgba(255,255,255,0.7)" rx="1"/>
  <rect x="183" y="183" width="16" height="13" fill="rgba(255,255,255,0.7)" rx="1"/>
  <rect x="203" y="183" width="16" height="13" fill="rgba(255,255,255,0.7)" rx="1"/>
  <rect x="223" y="183" width="16" height="13" fill="rgba(255,255,255,0.7)" rx="1"/>
  <rect x="163" y="200" width="16" height="13" fill="rgba(255,255,255,0.7)" rx="1"/>
  <rect x="183" y="200" width="16" height="13" fill="rgba(255,255,255,0.7)" rx="1"/>
  <rect x="203" y="200" width="16" height="13" fill="rgba(255,255,255,0.7)" rx="1"/>
  <rect x="223" y="200" width="16" height="13" fill="rgba(255,255,255,0.7)" rx="1"/>
  <rect x="163" y="217" width="16" height="13" fill="rgba(255,255,255,0.7)" rx="1"/>
  <rect x="183" y="217" width="16" height="13" fill="rgba(255,255,255,0.7)" rx="1"/>
  <rect x="203" y="217" width="16" height="13" fill="rgba(255,255,255,0.7)" rx="1"/>
  <rect x="223" y="217" width="16" height="13" fill="rgba(255,255,255,0.7)" rx="1"/>
  <rect x="163" y="234" width="16" height="13" fill="rgba(255,255,255,0.7)" rx="1"/>
  <rect x="183" y="234" width="16" height="13" fill="rgba(255,255,255,0.7)" rx="1"/>
  <rect x="203" y="234" width="16" height="13" fill="rgba(255,255,255,0.7)" rx="1"/>
  <rect x="223" y="234" width="16" height="13" fill="rgba(255,255,255,0.7)" rx="1"/>
  <rect x="163" y="251" width="16" height="13" fill="rgba(255,255,255,0.7)" rx="1"/>
  <rect x="183" y="251" width="16" height="13" fill="rgba(255,255,255,0.7)" rx="1"/>
  <rect x="203" y="251" width="16" height="13" fill="rgba(255,255,255,0.7)" rx="1"/>
  <rect x="223" y="251" width="16" height="13" fill="rgba(255,255,255,0.7)" rx="1"/>
  <!-- Bangalore building -->
  <rect x="295" y="110" width="70" height="155" fill="rgba(255,255,255,0.1)" stroke="#FFFFFF" stroke-width="1.5" rx="2"/>
  
  <rect x="303" y="118" width="15" height="13" fill="rgba(200,168,75,0.9)" rx="1"/>
  <rect x="322" y="118" width="15" height="13" fill="rgba(200,168,75,0.9)" rx="1"/>
  <rect x="341" y="118" width="15" height="13" fill="rgba(255,255,255,0.7)" rx="1"/>
  <rect x="303" y="135" width="15" height="13" fill="rgba(255,255,255,0.7)" rx="1"/>
  <rect x="322" y="135" width="15" height="13" fill="rgba(255,255,255,0.7)" rx="1"/>
  <rect x="341" y="135" width="15" height="13" fill="rgba(200,168,75,0.9)" rx="1"/>
  <rect x="303" y="152" width="15" height="13" fill="rgba(255,255,255,0.7)" rx="1"/>
  <rect x="322" y="152" width="15" height="13" fill="rgba(200,168,75,0.9)" rx="1"/>
  <rect x="341" y="152" width="15" height="13" fill="rgba(255,255,255,0.7)" rx="1"/>
  <rect x="303" y="169" width="15" height="13" fill="rgba(200,168,75,0.9)" rx="1"/>
  <rect x="322" y="169" width="15" height="13" fill="rgba(255,255,255,0.7)" rx="1"/>
  <rect x="341" y="169" width="15" height="13" fill="rgba(200,168,75,0.9)" rx="1"/>
  <rect x="303" y="186" width="15" height="13" fill="rgba(255,255,255,0.7)" rx="1"/>
  <rect x="322" y="186" width="15" height="13" fill="rgba(255,255,255,0.7)" rx="1"/>
  <rect x="341" y="186" width="15" height="13" fill="rgba(255,255,255,0.7)" rx="1"/>
  <rect x="303" y="203" width="15" height="13" fill="rgba(255,255,255,0.7)" rx="1"/>
  <rect x="322" y="203" width="15" height="13" fill="rgba(255,255,255,0.7)" rx="1"/>
  <rect x="341" y="203" width="15" height="13" fill="rgba(255,255,255,0.7)" rx="1"/>
  <rect x="303" y="220" width="15" height="13" fill="rgba(255,255,255,0.7)" rx="1"/>
  <rect x="322" y="220" width="15" height="13" fill="rgba(255,255,255,0.7)" rx="1"/>
  <rect x="341" y="220" width="15" height="13" fill="rgba(255,255,255,0.7)" rx="1"/>
  <rect x="303" y="237" width="15" height="13" fill="rgba(255,255,255,0.7)" rx="1"/>
  <rect x="322" y="237" width="15" height="13" fill="rgba(255,255,255,0.7)" rx="1"/>
  <rect x="341" y="237" width="15" height="13" fill="rgba(255,255,255,0.7)" rx="1"/>
  <!-- Map pin dots -->
  <circle cx="75" cy="75" r="5" fill="#C8A84B"/>
  <circle cx="200" cy="75" r="5" fill="#C8A84B"/>
  <circle cx="325" cy="75" r="5" fill="#C8A84B"/>
  <!-- Ground -->
    <line x1="30" y1="278" x2="370" y2="278" stroke="rgba(255,255,255,0.3)" stroke-width="1.5"/>
  <!-- Plotted dev hint - small squares -->
  <rect x="50" y="266" width="10" height="10" fill="rgba(255,255,255,0.3)" stroke="#FFFFFF" stroke-width="0.5"/>
  <rect x="63" y="266" width="10" height="10" fill="rgba(255,255,255,0.3)" stroke="#FFFFFF" stroke-width="0.5"/>
  <rect x="76" y="266" width="10" height="10" fill="rgba(255,255,255,0.3)" stroke="#FFFFFF" stroke-width="0.5"/>
  <rect x="89" y="266" width="10" height="10" fill="rgba(255,255,255,0.3)" stroke="#FFFFFF" stroke-width="0.5"/>
  <text x="200" y="272" text-anchor="middle" font-family="Arial,sans-serif" font-size="8" fill="rgba(255,255,255,0.6)">· · · PRIDE VATIKA · 100 ACRES · PLOTTED DEVELOPMENT · · ·</text>

</svg>