<svg xmlns="http://www.w3.org/2000/svg" viewBox="0 0 400 320" width="400" height="320">
  <defs>
    <filter id="glow">
      <feGaussianBlur stdDeviation="2" result="coloredBlur"/>
      <feMerge><feMergeNode in="coloredBlur"/><feMergeNode in="SourceGraphic"/></feMerge>
    </filter>
  </defs>
  <!-- Background -->
  <rect width="400" height="320" fill="#1F3F6B"/>
  <!-- Subtle grid texture -->
  <pattern id="grid" width="40" height="40" patternUnits="userSpaceOnUse">
    <path d="M 40 0 L 0 0 0 40" fill="none" stroke="rgba(255,255,255,0.04)" stroke-width="0.5"/>
  </pattern>
  <rect width="400" height="320" fill="url(#grid)"/>

  <!-- Street perspective -->
  <path d="M200,280 L100,175 L100,160 L200,235 L300,160 L300,175 Z" fill="rgba(255,255,255,0.06)" stroke="rgba(255,255,255,0.2)" stroke-width="1"/>
  <!-- Main boulevard road -->
  <path d="M60,280 L340,280 L320,230 L80,230 Z" fill="rgba(255,255,255,0.08)"/>
  <line x1="200" y1="230" x2="200" y2="280" stroke="rgba(255,255,255,0.3)" stroke-width="1.5" stroke-dasharray="8,6"/>
  <!-- Left building block 1 -->
  <rect x="55" y="120" width="65" height="140" fill="rgba(255,255,255,0.1)" stroke="#FFFFFF" stroke-width="1.5" rx="2"/>
  
  <rect x="62" y="128" width="14" height="13" fill="rgba(200,168,75,0.9)" rx="1"/>
  <rect x="80" y="128" width="14" height="13" fill="rgba(200,168,75,0.9)" rx="1"/>
  <rect x="98" y="128" width="14" height="13" fill="rgba(255,255,255,0.7)" rx="1"/>
  <rect x="62" y="145" width="14" height="13" fill="rgba(255,255,255,0.7)" rx="1"/>
  <rect x="80" y="145" width="14" height="13" fill="rgba(255,255,255,0.7)" rx="1"/>
  <rect x="98" y="145" width="14" height="13" fill="rgba(200,168,75,0.9)" rx="1"/>
  <rect x="62" y="162" width="14" height="13" fill="rgba(255,255,255,0.7)" rx="1"/>
  <rect x="80" y="162" width="14" height="13" fill="rgba(200,168,75,0.9)" rx="1"/>
  <rect x="98" y="162" width="14" height="13" fill="rgba(255,255,255,0.7)" rx="1"/>
  <rect x="62" y="179" width="14" height="13" fill="rgba(200,168,75,0.9)" rx="1"/>
  <rect x="80" y="179" width="14" height="13" fill="rgba(255,255,255,0.7)" rx="1"/>
  <rect x="98" y="179" width="14" height="13" fill="rgba(200,168,75,0.9)" rx="1"/>
  <rect x="62" y="196" width="14" height="13" fill="rgba(255,255,255,0.7)" rx="1"/>
  <rect x="80" y="196" width="14" height="13" fill="rgba(255,255,255,0.7)" rx="1"/>
  <rect x="98" y="196" width="14" height="13" fill="rgba(255,255,255,0.7)" rx="1"/>
  <rect x="62" y="213" width="14" height="13" fill="rgba(255,255,255,0.7)" rx="1"/>
  <rect x="80" y="213" width="14" height="13" fill="rgba(255,255,255,0.7)" rx="1"/>
  <rect x="98" y="213" width="14" height="13" fill="rgba(255,255,255,0.7)" rx="1"/>
  <rect x="62" y="230" width="14" height="13" fill="rgba(255,255,255,0.7)" rx="1"/>
  <rect x="80" y="230" width="14" height="13" fill="rgba(255,255,255,0.7)" rx="1"/>
  <rect x="98" y="230" width="14" height="13" fill="rgba(255,255,255,0.7)" rx="1"/>
  <!-- Left building block 2 -->
  <rect x="55" y="85" width="45" height="40" fill="rgba(255,255,255,0.12)" stroke="#FFFFFF" stroke-width="1.5" rx="2"/>
  
  <rect x="60" y="90" width="14" height="12" fill="rgba(200,168,75,0.9)" rx="1"/>
  <rect x="78" y="90" width="14" height="12" fill="rgba(200,168,75,0.9)" rx="1"/>
  <rect x="60" y="106" width="14" height="12" fill="rgba(255,255,255,0.7)" rx="1"/>
  <rect x="78" y="106" width="14" height="12" fill="rgba(255,255,255,0.7)" rx="1"/>
  <!-- Right building block 1 -->
  <rect x="280" y="120" width="65" height="140" fill="rgba(255,255,255,0.1)" stroke="#FFFFFF" stroke-width="1.5" rx="2"/>
  
  <rect x="287" y="128" width="14" height="13" fill="rgba(200,168,75,0.9)" rx="1"/>
  <rect x="305" y="128" width="14" height="13" fill="rgba(200,168,75,0.9)" rx="1"/>
  <rect x="323" y="128" width="14" height="13" fill="rgba(255,255,255,0.7)" rx="1"/>
  <rect x="287" y="145" width="14" height="13" fill="rgba(255,255,255,0.7)" rx="1"/>
  <rect x="305" y="145" width="14" height="13" fill="rgba(255,255,255,0.7)" rx="1"/>
  <rect x="323" y="145" width="14" height="13" fill="rgba(200,168,75,0.9)" rx="1"/>
  <rect x="287" y="162" width="14" height="13" fill="rgba(255,255,255,0.7)" rx="1"/>
  <rect x="305" y="162" width="14" height="13" fill="rgba(200,168,75,0.9)" rx="1"/>
  <rect x="323" y="162" width="14" height="13" fill="rgba(255,255,255,0.7)" rx="1"/>
  <rect x="287" y="179" width="14" height="13" fill="rgba(200,168,75,0.9)" rx="1"/>
  <rect x="305" y="179" width="14" height="13" fill="rgba(255,255,255,0.7)" rx="1"/>
  <rect x="323" y="179" width="14" height="13" fill="rgba(200,168,75,0.9)" rx="1"/>
  <rect x="287" y="196" width="14" height="13" fill="rgba(255,255,255,0.7)" rx="1"/>
  <rect x="305" y="196" width="14" height="13" fill="rgba(255,255,255,0.7)" rx="1"/>
  <rect x="323" y="196" width="14" height="13" fill="rgba(255,255,255,0.7)" rx="1"/>
  <rect x="287" y="213" width="14" height="13" fill="rgba(255,255,255,0.7)" rx="1"/>
  <rect x="305" y="213" width="14" height="13" fill="rgba(255,255,255,0.7)" rx="1"/>
  <rect x="323" y="213" width="14" height="13" fill="rgba(255,255,255,0.7)" rx="1"/>
  <rect x="287" y="230" width="14" height="13" fill="rgba(255,255,255,0.7)" rx="1"/>
  <rect x="305" y="230" width="14" height="13" fill="rgba(255,255,255,0.7)" rx="1"/>
  <rect x="323" y="230" width="14" height="13" fill="rgba(255,255,255,0.7)" rx="1"/>
  <!-- Right building block 2 -->
  <rect x="300" y="85" width="45" height="40" fill="rgba(255,255,255,0.12)" stroke="#FFFFFF" stroke-width="1.5" rx="2"/>
  
  <rect x="305" y="90" width="14" height="12" fill="rgba(200,168,75,0.9)" rx="1"/>
  <rect x="323" y="90" width="14" height="12" fill="rgba(200,168,75,0.9)" rx="1"/>
  <rect x="305" y="106" width="14" height="12" fill="rgba(255,255,255,0.7)" rx="1"/>
  <rect x="323" y="106" width="14" height="12" fill="rgba(255,255,255,0.7)" rx="1"/>
  <!-- Central landmark building -->
  <rect x="145" y="75" width="110" height="165" fill="rgba(255,255,255,0.13)" stroke="#FFFFFF" stroke-width="2" rx="2"/>
  
  <rect x="154" y="85" width="18" height="15" fill="rgba(200,168,75,0.9)" rx="1"/>
  <rect x="176" y="85" width="18" height="15" fill="rgba(200,168,75,0.9)" rx="1"/>
  <rect x="198" y="85" width="18" height="15" fill="rgba(255,255,255,0.7)" rx="1"/>
  <rect x="220" y="85" width="18" height="15" fill="rgba(255,255,255,0.7)" rx="1"/>
  <rect x="154" y="104" width="18" height="15" fill="rgba(255,255,255,0.7)" rx="1"/>
  <rect x="176" y="104" width="18" height="15" fill="rgba(255,255,255,0.7)" rx="1"/>
  <rect x="198" y="104" width="18" height="15" fill="rgba(200,168,75,0.9)" rx="1"/>
  <rect x="220" y="104" width="18" height="15" fill="rgba(255,255,255,0.7)" rx="1"/>
  <rect x="154" y="123" width="18" height="15" fill="rgba(255,255,255,0.7)" rx="1"/>
  <rect x="176" y="123" width="18" height="15" fill="rgba(200,168,75,0.9)" rx="1"/>
  <rect x="198" y="123" width="18" height="15" fill="rgba(255,255,255,0.7)" rx="1"/>
  <rect x="220" y="123" width="18" height="15" fill="rgba(255,255,255,0.7)" rx="1"/>
  <rect x="154" y="142" width="18" height="15" fill="rgba(200,168,75,0.9)" rx="1"/>
  <rect x="176" y="142" width="18" height="15" fill="rgba(255,255,255,0.7)" rx="1"/>
  <rect x="198" y="142" width="18" height="15" fill="rgba(200,168,75,0.9)" rx="1"/>
  <rect x="220" y="142" width="18" height="15" fill="rgba(255,255,255,0.7)" rx="1"/>
  <rect x="154" y="161" width="18" height="15" fill="rgba(255,255,255,0.7)" rx="1"/>
  <rect x="176" y="161" width="18" height="15" fill="rgba(255,255,255,0.7)" rx="1"/>
  <rect x="198" y="161" width="18" height="15" fill="rgba(255,255,255,0.7)" rx="1"/>
  <rect x="220" y="161" width="18" height="15" fill="rgba(255,255,255,0.7)" rx="1"/>
  <rect x="154" y="180" width="18" height="15" fill="rgba(255,255,255,0.7)" rx="1"/>
  <rect x="176" y="180" width="18" height="15" fill="rgba(255,255,255,0.7)" rx="1"/>
  <rect x="198" y="180" width="18" height="15" fill="rgba(255,255,255,0.7)" rx="1"/>
  <rect x="220" y="180" width="18" height="15" fill="rgba(255,255,255,0.7)" rx="1"/>
  <rect x="154" y="199" width="18" height="15" fill="rgba(255,255,255,0.7)" rx="1"/>
  <rect x="176" y="199" width="18" height="15" fill="rgba(255,255,255,0.7)" rx="1"/>
  <rect x="198" y="199" width="18" height="15" fill="rgba(255,255,255,0.7)" rx="1"/>
  <rect x="220" y="199" width="18" height="15" fill="rgba(255,255,255,0.7)" rx="1"/>
  <rect x="154" y="218" width="18" height="15" fill="rgba(255,255,255,0.7)" rx="1"/>
  <rect x="176" y="218" width="18" height="15" fill="rgba(255,255,255,0.7)" rx="1"/>
  <rect x="198" y="218" width="18" height="15" fill="rgba(255,255,255,0.7)" rx="1"/>
  <rect x="220" y="218" width="18" height="15" fill="rgba(255,255,255,0.7)" rx="1"/>
  <!-- Entrance arch -->
  <path d="M175,240 Q200,225 225,240" stroke="#FFFFFF" stroke-width="1.5" fill="rgba(255,255,255,0.1)"/>
  <rect x="185" y="240" width="30" height="20" fill="rgba(255,255,255,0.1)" stroke="#FFFFFF" stroke-width="1"/>
  <!-- Street trees (lining the boulevard) -->
  
  <rect x="93" y="221.5" width="4" height="10.5" fill="rgba(255,255,255,0.5)"/>
  <polygon points="95,190 87.0,221.5 103.0,221.5" fill="rgba(255,255,255,0.7)"/>
  <polygon points="95,196.3 87.8,213.1 102.2,213.1" fill="rgba(255,255,255,0.5)"/>
  
  <rect x="138" y="221.5" width="4" height="10.5" fill="rgba(255,255,255,0.5)"/>
  <polygon points="140,190 132.0,221.5 148.0,221.5" fill="rgba(255,255,255,0.7)"/>
  <polygon points="140,196.3 132.8,213.1 147.2,213.1" fill="rgba(255,255,255,0.5)"/>
  
  <rect x="258" y="221.5" width="4" height="10.5" fill="rgba(255,255,255,0.5)"/>
  <polygon points="260,190 252.0,221.5 268.0,221.5" fill="rgba(255,255,255,0.7)"/>
  <polygon points="260,196.3 252.8,213.1 267.2,213.1" fill="rgba(255,255,255,0.5)"/>
  
  <rect x="303" y="221.5" width="4" height="10.5" fill="rgba(255,255,255,0.5)"/>
  <polygon points="305,190 297.0,221.5 313.0,221.5" fill="rgba(255,255,255,0.7)"/>
  <polygon points="305,196.3 297.8,213.1 312.2,213.1" fill="rgba(255,255,255,0.5)"/>
  <!-- Park sign -->
  <rect x="152" y="122" width="96" height="16" fill="#C8A84B" rx="2"/>
  <text x="200" y="134" text-anchor="middle" font-family="Georgia,serif" font-size="7.5" fill="#1F3F6B" font-weight="bold" letter-spacing="1">PARK STREET · 76 ACRES</text>
  <!-- Ground -->
    <line x1="30" y1="280" x2="370" y2="280" stroke="rgba(255,255,255,0.3)" stroke-width="1.5"/>
  <!-- Street lamps -->
  <line x1="118" y1="230" x2="118" y2="265" stroke="rgba(255,255,255,0.5)" stroke-width="1.5"/>
  <circle cx="118" cy="229" r="3" fill="#C8A84B"/>
  <line x1="282" y1="230" x2="282" y2="265" stroke="rgba(255,255,255,0.5)" stroke-width="1.5"/>
  <circle cx="282" cy="229" r="3" fill="#C8A84B"/>

</svg>