<svg xmlns="http://www.w3.org/2000/svg" viewBox="0 0 400 320" width="400" height="320">
  <defs>
    <filter id="glow">
      <feGaussianBlur stdDeviation="2" result="coloredBlur"/>
      <feMerge><feMergeNode in="coloredBlur"/><feMergeNode in="SourceGraphic"/></feMerge>
    </filter>
  </defs>
  <!-- Background -->
  <rect width="400" height="320" fill="#1F3F6B"/>
  <!-- Subtle grid texture -->
  <pattern id="grid" width="40" height="40" patternUnits="userSpaceOnUse">
    <path d="M 40 0 L 0 0 0 40" fill="none" stroke="rgba(255,255,255,0.04)" stroke-width="0.5"/>
  </pattern>
  <rect width="400" height="320" fill="url(#grid)"/>

  <!-- Background skyline glow -->
  <ellipse cx="200" cy="280" rx="220" ry="60" fill="rgba(200,168,75,0.08)"/>
  <!-- Far background towers (small) -->
  <rect x="30" y="180" width="25" height="100" fill="rgba(255,255,255,0.06)" stroke="rgba(255,255,255,0.2)" stroke-width="1"/>
  <rect x="345" y="190" width="25" height="90" fill="rgba(255,255,255,0.06)" stroke="rgba(255,255,255,0.2)" stroke-width="1"/>
  <!-- Left tower cluster -->
  <rect x="60" y="145" width="50" height="135" fill="rgba(255,255,255,0.1)" stroke="#FFFFFF" stroke-width="1.5" rx="2"/>
  
  <rect x="67" y="153" width="14" height="12" fill="rgba(200,168,75,0.9)" rx="1"/>
  <rect x="85" y="153" width="14" height="12" fill="rgba(200,168,75,0.9)" rx="1"/>
  <rect x="67" y="169" width="14" height="12" fill="rgba(255,255,255,0.7)" rx="1"/>
  <rect x="85" y="169" width="14" height="12" fill="rgba(255,255,255,0.7)" rx="1"/>
  <rect x="67" y="185" width="14" height="12" fill="rgba(255,255,255,0.7)" rx="1"/>
  <rect x="85" y="185" width="14" height="12" fill="rgba(200,168,75,0.9)" rx="1"/>
  <rect x="67" y="201" width="14" height="12" fill="rgba(200,168,75,0.9)" rx="1"/>
  <rect x="85" y="201" width="14" height="12" fill="rgba(255,255,255,0.7)" rx="1"/>
  <rect x="67" y="217" width="14" height="12" fill="rgba(255,255,255,0.7)" rx="1"/>
  <rect x="85" y="217" width="14" height="12" fill="rgba(255,255,255,0.7)" rx="1"/>
  <rect x="67" y="233" width="14" height="12" fill="rgba(255,255,255,0.7)" rx="1"/>
  <rect x="85" y="233" width="14" height="12" fill="rgba(255,255,255,0.7)" rx="1"/>
  <rect x="67" y="249" width="14" height="12" fill="rgba(255,255,255,0.7)" rx="1"/>
  <rect x="85" y="249" width="14" height="12" fill="rgba(255,255,255,0.7)" rx="1"/>
  <rect x="67" y="265" width="14" height="12" fill="rgba(255,255,255,0.7)" rx="1"/>
  <rect x="85" y="265" width="14" height="12" fill="rgba(255,255,255,0.7)" rx="1"/>
  <rect x="110" y="160" width="40" height="120" fill="rgba(255,255,255,0.08)" stroke="#FFFFFF" stroke-width="1.5" rx="2"/>
  
  <rect x="116" y="168" width="12" height="12" fill="rgba(200,168,75,0.9)" rx="1"/>
  <rect x="132" y="168" width="12" height="12" fill="rgba(200,168,75,0.9)" rx="1"/>
  <rect x="116" y="184" width="12" height="12" fill="rgba(255,255,255,0.7)" rx="1"/>
  <rect x="132" y="184" width="12" height="12" fill="rgba(255,255,255,0.7)" rx="1"/>
  <rect x="116" y="200" width="12" height="12" fill="rgba(255,255,255,0.7)" rx="1"/>
  <rect x="132" y="200" width="12" height="12" fill="rgba(200,168,75,0.9)" rx="1"/>
  <rect x="116" y="216" width="12" height="12" fill="rgba(200,168,75,0.9)" rx="1"/>
  <rect x="132" y="216" width="12" height="12" fill="rgba(255,255,255,0.7)" rx="1"/>
  <rect x="116" y="232" width="12" height="12" fill="rgba(255,255,255,0.7)" rx="1"/>
  <rect x="132" y="232" width="12" height="12" fill="rgba(255,255,255,0.7)" rx="1"/>
  <rect x="116" y="248" width="12" height="12" fill="rgba(255,255,255,0.7)" rx="1"/>
  <rect x="132" y="248" width="12" height="12" fill="rgba(255,255,255,0.7)" rx="1"/>
  <rect x="116" y="264" width="12" height="12" fill="rgba(255,255,255,0.7)" rx="1"/>
  <rect x="132" y="264" width="12" height="12" fill="rgba(255,255,255,0.7)" rx="1"/>
  <!-- Central grand tower -->
  <rect x="155" y="65" width="90" height="215" fill="rgba(255,255,255,0.14)" stroke="#FFFFFF" stroke-width="2.5" rx="3"/>
  
  <rect x="163" y="75" width="16" height="13" fill="rgba(200,168,75,0.9)" rx="1"/>
  <rect x="183" y="75" width="16" height="13" fill="rgba(200,168,75,0.9)" rx="1"/>
  <rect x="203" y="75" width="16" height="13" fill="rgba(255,255,255,0.7)" rx="1"/>
  <rect x="223" y="75" width="16" height="13" fill="rgba(255,255,255,0.7)" rx="1"/>
  <rect x="163" y="92" width="16" height="13" fill="rgba(255,255,255,0.7)" rx="1"/>
  <rect x="183" y="92" width="16" height="13" fill="rgba(255,255,255,0.7)" rx="1"/>
  <rect x="203" y="92" width="16" height="13" fill="rgba(200,168,75,0.9)" rx="1"/>
  <rect x="223" y="92" width="16" height="13" fill="rgba(255,255,255,0.7)" rx="1"/>
  <rect x="163" y="109" width="16" height="13" fill="rgba(255,255,255,0.7)" rx="1"/>
  <rect x="183" y="109" width="16" height="13" fill="rgba(200,168,75,0.9)" rx="1"/>
  <rect x="203" y="109" width="16" height="13" fill="rgba(255,255,255,0.7)" rx="1"/>
  <rect x="223" y="109" width="16" height="13" fill="rgba(255,255,255,0.7)" rx="1"/>
  <rect x="163" y="126" width="16" height="13" fill="rgba(200,168,75,0.9)" rx="1"/>
  <rect x="183" y="126" width="16" height="13" fill="rgba(255,255,255,0.7)" rx="1"/>
  <rect x="203" y="126" width="16" height="13" fill="rgba(200,168,75,0.9)" rx="1"/>
  <rect x="223" y="126" width="16" height="13" fill="rgba(255,255,255,0.7)" rx="1"/>
  <rect x="163" y="143" width="16" height="13" fill="rgba(255,255,255,0.7)" rx="1"/>
  <rect x="183" y="143" width="16" height="13" fill="rgba(255,255,255,0.7)" rx="1"/>
  <rect x="203" y="143" width="16" height="13" fill="rgba(255,255,255,0.7)" rx="1"/>
  <rect x="223" y="143" width="16" height="13" fill="rgba(255,255,255,0.7)" rx="1"/>
  <rect x="163" y="160" width="16" height="13" fill="rgba(255,255,255,0.7)" rx="1"/>
  <rect x="183" y="160" width="16" height="13" fill="rgba(255,255,255,0.7)" rx="1"/>
  <rect x="203" y="160" width="16" height="13" fill="rgba(255,255,255,0.7)" rx="1"/>
  <rect x="223" y="160" width="16" height="13" fill="rgba(255,255,255,0.7)" rx="1"/>
  <rect x="163" y="177" width="16" height="13" fill="rgba(255,255,255,0.7)" rx="1"/>
  <rect x="183" y="177" width="16" height="13" fill="rgba(255,255,255,0.7)" rx="1"/>
  <rect x="203" y="177" width="16" height="13" fill="rgba(255,255,255,0.7)" rx="1"/>
  <rect x="223" y="177" width="16" height="13" fill="rgba(255,255,255,0.7)" rx="1"/>
  <rect x="163" y="194" width="16" height="13" fill="rgba(255,255,255,0.7)" rx="1"/>
  <rect x="183" y="194" width="16" height="13" fill="rgba(255,255,255,0.7)" rx="1"/>
  <rect x="203" y="194" width="16" height="13" fill="rgba(255,255,255,0.7)" rx="1"/>
  <rect x="223" y="194" width="16" height="13" fill="rgba(255,255,255,0.7)" rx="1"/>
  <rect x="163" y="211" width="16" height="13" fill="rgba(255,255,255,0.7)" rx="1"/>
  <rect x="183" y="211" width="16" height="13" fill="rgba(255,255,255,0.7)" rx="1"/>
  <rect x="203" y="211" width="16" height="13" fill="rgba(255,255,255,0.7)" rx="1"/>
  <rect x="223" y="211" width="16" height="13" fill="rgba(255,255,255,0.7)" rx="1"/>
  <rect x="163" y="228" width="16" height="13" fill="rgba(255,255,255,0.7)" rx="1"/>
  <rect x="183" y="228" width="16" height="13" fill="rgba(255,255,255,0.7)" rx="1"/>
  <rect x="203" y="228" width="16" height="13" fill="rgba(255,255,255,0.7)" rx="1"/>
  <rect x="223" y="228" width="16" height="13" fill="rgba(255,255,255,0.7)" rx="1"/>
  <rect x="163" y="245" width="16" height="13" fill="rgba(255,255,255,0.7)" rx="1"/>
  <rect x="183" y="245" width="16" height="13" fill="rgba(255,255,255,0.7)" rx="1"/>
  <rect x="203" y="245" width="16" height="13" fill="rgba(255,255,255,0.7)" rx="1"/>
  <rect x="223" y="245" width="16" height="13" fill="rgba(255,255,255,0.7)" rx="1"/>
  <rect x="163" y="262" width="16" height="13" fill="rgba(255,255,255,0.7)" rx="1"/>
  <rect x="183" y="262" width="16" height="13" fill="rgba(255,255,255,0.7)" rx="1"/>
  <rect x="203" y="262" width="16" height="13" fill="rgba(255,255,255,0.7)" rx="1"/>
  <rect x="223" y="262" width="16" height="13" fill="rgba(255,255,255,0.7)" rx="1"/>
  <!-- Crown/top of central tower -->
  <polygon points="155,65 200,40 245,65" fill="rgba(255,255,255,0.2)" stroke="#FFFFFF" stroke-width="2"/>
  <line x1="200" y1="25" x2="200" y2="42" stroke="#C8A84B" stroke-width="2"/>
  <circle cx="200" cy="22" r="5" fill="#C8A84B"/>
  <!-- Right tower cluster -->
  <rect x="250" y="160" width="40" height="120" fill="rgba(255,255,255,0.08)" stroke="#FFFFFF" stroke-width="1.5" rx="2"/>
  
  <rect x="256" y="168" width="12" height="12" fill="rgba(200,168,75,0.9)" rx="1"/>
  <rect x="272" y="168" width="12" height="12" fill="rgba(200,168,75,0.9)" rx="1"/>
  <rect x="256" y="184" width="12" height="12" fill="rgba(255,255,255,0.7)" rx="1"/>
  <rect x="272" y="184" width="12" height="12" fill="rgba(255,255,255,0.7)" rx="1"/>
  <rect x="256" y="200" width="12" height="12" fill="rgba(255,255,255,0.7)" rx="1"/>
  <rect x="272" y="200" width="12" height="12" fill="rgba(200,168,75,0.9)" rx="1"/>
  <rect x="256" y="216" width="12" height="12" fill="rgba(200,168,75,0.9)" rx="1"/>
  <rect x="272" y="216" width="12" height="12" fill="rgba(255,255,255,0.7)" rx="1"/>
  <rect x="256" y="232" width="12" height="12" fill="rgba(255,255,255,0.7)" rx="1"/>
  <rect x="272" y="232" width="12" height="12" fill="rgba(255,255,255,0.7)" rx="1"/>
  <rect x="256" y="248" width="12" height="12" fill="rgba(255,255,255,0.7)" rx="1"/>
  <rect x="272" y="248" width="12" height="12" fill="rgba(255,255,255,0.7)" rx="1"/>
  <rect x="256" y="264" width="12" height="12" fill="rgba(255,255,255,0.7)" rx="1"/>
  <rect x="272" y="264" width="12" height="12" fill="rgba(255,255,255,0.7)" rx="1"/>
  <rect x="290" y="145" width="50" height="135" fill="rgba(255,255,255,0.1)" stroke="#FFFFFF" stroke-width="1.5" rx="2"/>
  
  <rect x="297" y="153" width="14" height="12" fill="rgba(200,168,75,0.9)" rx="1"/>
  <rect x="315" y="153" width="14" height="12" fill="rgba(200,168,75,0.9)" rx="1"/>
  <rect x="297" y="169" width="14" height="12" fill="rgba(255,255,255,0.7)" rx="1"/>
  <rect x="315" y="169" width="14" height="12" fill="rgba(255,255,255,0.7)" rx="1"/>
  <rect x="297" y="185" width="14" height="12" fill="rgba(255,255,255,0.7)" rx="1"/>
  <rect x="315" y="185" width="14" height="12" fill="rgba(200,168,75,0.9)" rx="1"/>
  <rect x="297" y="201" width="14" height="12" fill="rgba(200,168,75,0.9)" rx="1"/>
  <rect x="315" y="201" width="14" height="12" fill="rgba(255,255,255,0.7)" rx="1"/>
  <rect x="297" y="217" width="14" height="12" fill="rgba(255,255,255,0.7)" rx="1"/>
  <rect x="315" y="217" width="14" height="12" fill="rgba(255,255,255,0.7)" rx="1"/>
  <rect x="297" y="233" width="14" height="12" fill="rgba(255,255,255,0.7)" rx="1"/>
  <rect x="315" y="233" width="14" height="12" fill="rgba(255,255,255,0.7)" rx="1"/>
  <rect x="297" y="249" width="14" height="12" fill="rgba(255,255,255,0.7)" rx="1"/>
  <rect x="315" y="249" width="14" height="12" fill="rgba(255,255,255,0.7)" rx="1"/>
  <rect x="297" y="265" width="14" height="12" fill="rgba(255,255,255,0.7)" rx="1"/>
  <rect x="315" y="265" width="14" height="12" fill="rgba(255,255,255,0.7)" rx="1"/>
  <!-- Grand entrance plaza -->
  <rect x="170" y="280" width="60" height="0" fill="none"/>
  <path d="M155,280 L165,265 Q200,255 235,265 L245,280" fill="rgba(255,255,255,0.15)" stroke="#FFFFFF" stroke-width="1.5"/>
  <!-- PWC Banner -->
  <rect x="158" y="110" width="84" height="20" fill="#C8A84B" rx="2"/>
  <text x="200" y="124" text-anchor="middle" font-family="Georgia,serif" font-size="9" fill="#1F3F6B" font-weight="bold" letter-spacing="2">PRIDE WORLD CITY</text>
  <!-- Ground -->
    <line x1="30" y1="282" x2="370" y2="282" stroke="rgba(255,255,255,0.3)" stroke-width="1.5"/>
  <!-- Podium/platform -->
  <rect x="55" y="278" width="290" height="6" fill="rgba(255,255,255,0.15)" stroke="#FFFFFF" stroke-width="1"/>
  <!-- Trees -->
  
  <rect x="36" y="265.0" width="4" height="13.0" fill="rgba(255,255,255,0.5)"/>
  <polygon points="38,226 27.0,265.0 49.0,265.0" fill="rgba(255,255,255,0.7)"/>
  <polygon points="38,233.8 28.1,254.6 47.9,254.6" fill="rgba(255,255,255,0.5)"/>
  
  <rect x="360" y="265.0" width="4" height="13.0" fill="rgba(255,255,255,0.5)"/>
  <polygon points="362,226 351.0,265.0 373.0,265.0" fill="rgba(255,255,255,0.7)"/>
  <polygon points="362,233.8 352.1,254.6 371.9,254.6" fill="rgba(255,255,255,0.5)"/>
  <!-- Launch ribbon/stars -->
  <text x="80" y="85" font-family="Arial" font-size="14" fill="#C8A84B" opacity="0.8">✦</text>
  <text x="310" y="95" font-family="Arial" font-size="12" fill="#C8A84B" opacity="0.8">✦</text>
  <text x="55" y="130" font-family="Arial" font-size="10" fill="#C8A84B" opacity="0.6">✦</text>

</svg>