<svg xmlns="http://www.w3.org/2000/svg" viewBox="0 0 400 320" width="400" height="320">
  <defs>
    <filter id="glow">
      <feGaussianBlur stdDeviation="2" result="coloredBlur"/>
      <feMerge><feMergeNode in="coloredBlur"/><feMergeNode in="SourceGraphic"/></feMerge>
    </filter>
  </defs>
  <!-- Background -->
  <rect width="400" height="320" fill="#1F3F6B"/>
  <!-- Subtle grid texture -->
  <pattern id="grid" width="40" height="40" patternUnits="userSpaceOnUse">
    <path d="M 40 0 L 0 0 0 40" fill="none" stroke="rgba(255,255,255,0.04)" stroke-width="0.5"/>
  </pattern>
  <rect width="400" height="320" fill="url(#grid)"/>

  <!-- Residential towers with warm lit windows -->
  <!-- Tower 1 -->
  <rect x="50" y="115" width="60" height="165" fill="rgba(255,255,255,0.1)" stroke="#FFFFFF" stroke-width="1.5" rx="2"/>
  
  <rect x="57" y="123" width="18" height="13" fill="rgba(200,168,75,0.9)" rx="1"/>
  <rect x="79" y="123" width="18" height="13" fill="rgba(200,168,75,0.9)" rx="1"/>
  <rect x="57" y="140" width="18" height="13" fill="rgba(255,255,255,0.7)" rx="1"/>
  <rect x="79" y="140" width="18" height="13" fill="rgba(255,255,255,0.7)" rx="1"/>
  <rect x="57" y="157" width="18" height="13" fill="rgba(255,255,255,0.7)" rx="1"/>
  <rect x="79" y="157" width="18" height="13" fill="rgba(200,168,75,0.9)" rx="1"/>
  <rect x="57" y="174" width="18" height="13" fill="rgba(200,168,75,0.9)" rx="1"/>
  <rect x="79" y="174" width="18" height="13" fill="rgba(255,255,255,0.7)" rx="1"/>
  <rect x="57" y="191" width="18" height="13" fill="rgba(255,255,255,0.7)" rx="1"/>
  <rect x="79" y="191" width="18" height="13" fill="rgba(255,255,255,0.7)" rx="1"/>
  <rect x="57" y="208" width="18" height="13" fill="rgba(255,255,255,0.7)" rx="1"/>
  <rect x="79" y="208" width="18" height="13" fill="rgba(255,255,255,0.7)" rx="1"/>
  <rect x="57" y="225" width="18" height="13" fill="rgba(255,255,255,0.7)" rx="1"/>
  <rect x="79" y="225" width="18" height="13" fill="rgba(255,255,255,0.7)" rx="1"/>
  <rect x="57" y="242" width="18" height="13" fill="rgba(255,255,255,0.7)" rx="1"/>
  <rect x="79" y="242" width="18" height="13" fill="rgba(255,255,255,0.7)" rx="1"/>
  <rect x="57" y="259" width="18" height="13" fill="rgba(255,255,255,0.7)" rx="1"/>
  <rect x="79" y="259" width="18" height="13" fill="rgba(255,255,255,0.7)" rx="1"/>
  <!-- Tower 2 -->
  <rect x="125" y="90" width="65" height="190" fill="rgba(255,255,255,0.12)" stroke="#FFFFFF" stroke-width="2" rx="2"/>
  
  <rect x="132" y="98" width="14" height="13" fill="rgba(200,168,75,0.9)" rx="1"/>
  <rect x="150" y="98" width="14" height="13" fill="rgba(200,168,75,0.9)" rx="1"/>
  <rect x="168" y="98" width="14" height="13" fill="rgba(255,255,255,0.7)" rx="1"/>
  <rect x="132" y="115" width="14" height="13" fill="rgba(255,255,255,0.7)" rx="1"/>
  <rect x="150" y="115" width="14" height="13" fill="rgba(255,255,255,0.7)" rx="1"/>
  <rect x="168" y="115" width="14" height="13" fill="rgba(200,168,75,0.9)" rx="1"/>
  <rect x="132" y="132" width="14" height="13" fill="rgba(255,255,255,0.7)" rx="1"/>
  <rect x="150" y="132" width="14" height="13" fill="rgba(200,168,75,0.9)" rx="1"/>
  <rect x="168" y="132" width="14" height="13" fill="rgba(255,255,255,0.7)" rx="1"/>
  <rect x="132" y="149" width="14" height="13" fill="rgba(200,168,75,0.9)" rx="1"/>
  <rect x="150" y="149" width="14" height="13" fill="rgba(255,255,255,0.7)" rx="1"/>
  <rect x="168" y="149" width="14" height="13" fill="rgba(200,168,75,0.9)" rx="1"/>
  <rect x="132" y="166" width="14" height="13" fill="rgba(255,255,255,0.7)" rx="1"/>
  <rect x="150" y="166" width="14" height="13" fill="rgba(255,255,255,0.7)" rx="1"/>
  <rect x="168" y="166" width="14" height="13" fill="rgba(255,255,255,0.7)" rx="1"/>
  <rect x="132" y="183" width="14" height="13" fill="rgba(255,255,255,0.7)" rx="1"/>
  <rect x="150" y="183" width="14" height="13" fill="rgba(255,255,255,0.7)" rx="1"/>
  <rect x="168" y="183" width="14" height="13" fill="rgba(255,255,255,0.7)" rx="1"/>
  <rect x="132" y="200" width="14" height="13" fill="rgba(255,255,255,0.7)" rx="1"/>
  <rect x="150" y="200" width="14" height="13" fill="rgba(255,255,255,0.7)" rx="1"/>
  <rect x="168" y="200" width="14" height="13" fill="rgba(255,255,255,0.7)" rx="1"/>
  <rect x="132" y="217" width="14" height="13" fill="rgba(255,255,255,0.7)" rx="1"/>
  <rect x="150" y="217" width="14" height="13" fill="rgba(255,255,255,0.7)" rx="1"/>
  <rect x="168" y="217" width="14" height="13" fill="rgba(255,255,255,0.7)" rx="1"/>
  <rect x="132" y="234" width="14" height="13" fill="rgba(255,255,255,0.7)" rx="1"/>
  <rect x="150" y="234" width="14" height="13" fill="rgba(255,255,255,0.7)" rx="1"/>
  <rect x="168" y="234" width="14" height="13" fill="rgba(255,255,255,0.7)" rx="1"/>
  <rect x="132" y="251" width="14" height="13" fill="rgba(255,255,255,0.7)" rx="1"/>
  <rect x="150" y="251" width="14" height="13" fill="rgba(255,255,255,0.7)" rx="1"/>
  <rect x="168" y="251" width="14" height="13" fill="rgba(255,255,255,0.7)" rx="1"/>
  <rect x="132" y="268" width="14" height="13" fill="rgba(255,255,255,0.7)" rx="1"/>
  <rect x="150" y="268" width="14" height="13" fill="rgba(255,255,255,0.7)" rx="1"/>
  <rect x="168" y="268" width="14" height="13" fill="rgba(255,255,255,0.7)" rx="1"/>
  <!-- Tower 3 (tallest, center) -->
  <rect x="200" y="70" width="70" height="210" fill="rgba(255,255,255,0.14)" stroke="#FFFFFF" stroke-width="2.5" rx="2"/>
  
  <rect x="208" y="78" width="16" height="13" fill="rgba(200,168,75,0.9)" rx="1"/>
  <rect x="228" y="78" width="16" height="13" fill="rgba(200,168,75,0.9)" rx="1"/>
  <rect x="248" y="78" width="16" height="13" fill="rgba(255,255,255,0.7)" rx="1"/>
  <rect x="208" y="95" width="16" height="13" fill="rgba(255,255,255,0.7)" rx="1"/>
  <rect x="228" y="95" width="16" height="13" fill="rgba(255,255,255,0.7)" rx="1"/>
  <rect x="248" y="95" width="16" height="13" fill="rgba(200,168,75,0.9)" rx="1"/>
  <rect x="208" y="112" width="16" height="13" fill="rgba(255,255,255,0.7)" rx="1"/>
  <rect x="228" y="112" width="16" height="13" fill="rgba(200,168,75,0.9)" rx="1"/>
  <rect x="248" y="112" width="16" height="13" fill="rgba(255,255,255,0.7)" rx="1"/>
  <rect x="208" y="129" width="16" height="13" fill="rgba(200,168,75,0.9)" rx="1"/>
  <rect x="228" y="129" width="16" height="13" fill="rgba(255,255,255,0.7)" rx="1"/>
  <rect x="248" y="129" width="16" height="13" fill="rgba(200,168,75,0.9)" rx="1"/>
  <rect x="208" y="146" width="16" height="13" fill="rgba(255,255,255,0.7)" rx="1"/>
  <rect x="228" y="146" width="16" height="13" fill="rgba(255,255,255,0.7)" rx="1"/>
  <rect x="248" y="146" width="16" height="13" fill="rgba(255,255,255,0.7)" rx="1"/>
  <rect x="208" y="163" width="16" height="13" fill="rgba(255,255,255,0.7)" rx="1"/>
  <rect x="228" y="163" width="16" height="13" fill="rgba(255,255,255,0.7)" rx="1"/>
  <rect x="248" y="163" width="16" height="13" fill="rgba(255,255,255,0.7)" rx="1"/>
  <rect x="208" y="180" width="16" height="13" fill="rgba(255,255,255,0.7)" rx="1"/>
  <rect x="228" y="180" width="16" height="13" fill="rgba(255,255,255,0.7)" rx="1"/>
  <rect x="248" y="180" width="16" height="13" fill="rgba(255,255,255,0.7)" rx="1"/>
  <rect x="208" y="197" width="16" height="13" fill="rgba(255,255,255,0.7)" rx="1"/>
  <rect x="228" y="197" width="16" height="13" fill="rgba(255,255,255,0.7)" rx="1"/>
  <rect x="248" y="197" width="16" height="13" fill="rgba(255,255,255,0.7)" rx="1"/>
  <rect x="208" y="214" width="16" height="13" fill="rgba(255,255,255,0.7)" rx="1"/>
  <rect x="228" y="214" width="16" height="13" fill="rgba(255,255,255,0.7)" rx="1"/>
  <rect x="248" y="214" width="16" height="13" fill="rgba(255,255,255,0.7)" rx="1"/>
  <rect x="208" y="231" width="16" height="13" fill="rgba(255,255,255,0.7)" rx="1"/>
  <rect x="228" y="231" width="16" height="13" fill="rgba(255,255,255,0.7)" rx="1"/>
  <rect x="248" y="231" width="16" height="13" fill="rgba(255,255,255,0.7)" rx="1"/>
  <rect x="208" y="248" width="16" height="13" fill="rgba(255,255,255,0.7)" rx="1"/>
  <rect x="228" y="248" width="16" height="13" fill="rgba(255,255,255,0.7)" rx="1"/>
  <rect x="248" y="248" width="16" height="13" fill="rgba(255,255,255,0.7)" rx="1"/>
  <rect x="208" y="265" width="16" height="13" fill="rgba(255,255,255,0.7)" rx="1"/>
  <rect x="228" y="265" width="16" height="13" fill="rgba(255,255,255,0.7)" rx="1"/>
  <rect x="248" y="265" width="16" height="13" fill="rgba(255,255,255,0.7)" rx="1"/>
  <!-- Tower 4 -->
  <rect x="285" y="90" width="65" height="190" fill="rgba(255,255,255,0.12)" stroke="#FFFFFF" stroke-width="2" rx="2"/>
  
  <rect x="292" y="98" width="14" height="13" fill="rgba(200,168,75,0.9)" rx="1"/>
  <rect x="310" y="98" width="14" height="13" fill="rgba(200,168,75,0.9)" rx="1"/>
  <rect x="328" y="98" width="14" height="13" fill="rgba(255,255,255,0.7)" rx="1"/>
  <rect x="292" y="115" width="14" height="13" fill="rgba(255,255,255,0.7)" rx="1"/>
  <rect x="310" y="115" width="14" height="13" fill="rgba(255,255,255,0.7)" rx="1"/>
  <rect x="328" y="115" width="14" height="13" fill="rgba(200,168,75,0.9)" rx="1"/>
  <rect x="292" y="132" width="14" height="13" fill="rgba(255,255,255,0.7)" rx="1"/>
  <rect x="310" y="132" width="14" height="13" fill="rgba(200,168,75,0.9)" rx="1"/>
  <rect x="328" y="132" width="14" height="13" fill="rgba(255,255,255,0.7)" rx="1"/>
  <rect x="292" y="149" width="14" height="13" fill="rgba(200,168,75,0.9)" rx="1"/>
  <rect x="310" y="149" width="14" height="13" fill="rgba(255,255,255,0.7)" rx="1"/>
  <rect x="328" y="149" width="14" height="13" fill="rgba(200,168,75,0.9)" rx="1"/>
  <rect x="292" y="166" width="14" height="13" fill="rgba(255,255,255,0.7)" rx="1"/>
  <rect x="310" y="166" width="14" height="13" fill="rgba(255,255,255,0.7)" rx="1"/>
  <rect x="328" y="166" width="14" height="13" fill="rgba(255,255,255,0.7)" rx="1"/>
  <rect x="292" y="183" width="14" height="13" fill="rgba(255,255,255,0.7)" rx="1"/>
  <rect x="310" y="183" width="14" height="13" fill="rgba(255,255,255,0.7)" rx="1"/>
  <rect x="328" y="183" width="14" height="13" fill="rgba(255,255,255,0.7)" rx="1"/>
  <rect x="292" y="200" width="14" height="13" fill="rgba(255,255,255,0.7)" rx="1"/>
  <rect x="310" y="200" width="14" height="13" fill="rgba(255,255,255,0.7)" rx="1"/>
  <rect x="328" y="200" width="14" height="13" fill="rgba(255,255,255,0.7)" rx="1"/>
  <rect x="292" y="217" width="14" height="13" fill="rgba(255,255,255,0.7)" rx="1"/>
  <rect x="310" y="217" width="14" height="13" fill="rgba(255,255,255,0.7)" rx="1"/>
  <rect x="328" y="217" width="14" height="13" fill="rgba(255,255,255,0.7)" rx="1"/>
  <rect x="292" y="234" width="14" height="13" fill="rgba(255,255,255,0.7)" rx="1"/>
  <rect x="310" y="234" width="14" height="13" fill="rgba(255,255,255,0.7)" rx="1"/>
  <rect x="328" y="234" width="14" height="13" fill="rgba(255,255,255,0.7)" rx="1"/>
  <rect x="292" y="251" width="14" height="13" fill="rgba(255,255,255,0.7)" rx="1"/>
  <rect x="310" y="251" width="14" height="13" fill="rgba(255,255,255,0.7)" rx="1"/>
  <rect x="328" y="251" width="14" height="13" fill="rgba(255,255,255,0.7)" rx="1"/>
  <rect x="292" y="268" width="14" height="13" fill="rgba(255,255,255,0.7)" rx="1"/>
  <rect x="310" y="268" width="14" height="13" fill="rgba(255,255,255,0.7)" rx="1"/>
  <rect x="328" y="268" width="14" height="13" fill="rgba(255,255,255,0.7)" rx="1"/>
  <!-- Warm window glow overlay (many windows lit = families home) -->
  <rect x="58" y="124" width="18" height="13" fill="rgba(200,168,75,0.7)" rx="1"/>
  <rect x="58" y="154" width="18" height="13" fill="rgba(200,168,75,0.7)" rx="1"/>
  <rect x="80" y="139" width="18" height="13" fill="rgba(200,168,75,0.7)" rx="1"/>
  <rect x="133" y="112" width="14" height="13" fill="rgba(200,168,75,0.7)" rx="1"/>
  <rect x="151" y="126" width="14" height="13" fill="rgba(200,168,75,0.7)" rx="1"/>
  <rect x="133" y="153" width="14" height="13" fill="rgba(200,168,75,0.7)" rx="1"/>
  <rect x="209" y="92" width="16" height="13" fill="rgba(200,168,75,0.7)" rx="1"/>
  <rect x="229" y="105" width="16" height="13" fill="rgba(200,168,75,0.7)" rx="1"/>
  <rect x="209" y="132" width="16" height="13" fill="rgba(200,168,75,0.7)" rx="1"/>
  <rect x="293" y="112" width="14" height="13" fill="rgba(200,168,75,0.7)" rx="1"/>
  <rect x="311" y="126" width="14" height="13" fill="rgba(200,168,75,0.7)" rx="1"/>
  <!-- Community park area in foreground -->
  <ellipse cx="200" cy="278" rx="130" ry="15" fill="rgba(255,255,255,0.06)"/>
  <!-- Family figures (simple silhouettes) -->
  <!-- Family 1 -->
  <circle cx="145" cy="265" r="5" fill="#FFFFFF" opacity="0.7"/>
  <line x1="145" y1="270" x2="145" y2="282" stroke="#FFFFFF" stroke-width="2" opacity="0.7"/>
  <line x1="138" y1="275" x2="152" y2="275" stroke="#FFFFFF" stroke-width="1.5" opacity="0.7"/>
  <circle cx="158" cy="267" r="4" fill="#FFFFFF" opacity="0.7"/>
  <line x1="158" y1="271" x2="158" y2="282" stroke="#FFFFFF" stroke-width="2" opacity="0.7"/>
  <!-- Family 2 -->
  <circle cx="200" cy="263" r="5" fill="#FFFFFF" opacity="0.7"/>
  <line x1="200" y1="268" x2="200" y2="280" stroke="#FFFFFF" stroke-width="2" opacity="0.7"/>
  <line x1="193" y1="273" x2="207" y2="273" stroke="#FFFFFF" stroke-width="1.5" opacity="0.7"/>
  <circle cx="213" cy="265" r="4" fill="#FFFFFF" opacity="0.7"/>
  <line x1="213" y1="269" x2="213" y2="280" stroke="#FFFFFF" stroke-width="2" opacity="0.7"/>
  <!-- Family 3 -->
  <circle cx="255" cy="265" r="5" fill="#FFFFFF" opacity="0.7"/>
  <line x1="255" y1="270" x2="255" y2="282" stroke="#FFFFFF" stroke-width="2" opacity="0.7"/>
  <line x1="248" y1="275" x2="262" y2="275" stroke="#FFFFFF" stroke-width="1.5" opacity="0.7"/>
  <circle cx="268" cy="267" r="4" fill="#FFFFFF" opacity="0.7"/>
  <line x1="268" y1="271" x2="268" y2="282" stroke="#FFFFFF" stroke-width="2" opacity="0.7"/>
  <!-- 1000 Families badge -->
  <circle cx="200" cy="35" r="28" fill="#1F3F6B" stroke="#C8A84B" stroke-width="2.5"/>
  <text x="200" y="30" text-anchor="middle" font-family="Georgia,serif" font-size="13" fill="#C8A84B" font-weight="bold">1,000</text>
  <text x="200" y="44" text-anchor="middle" font-family="Arial,sans-serif" font-size="7" fill="#FFFFFF">FAMILIES</text>
  <!-- Celebration stars -->
  <text x="70" y="55" font-family="Arial" font-size="12" fill="#C8A84B" opacity="0.9">✦</text>
  <text x="320" y="65" font-family="Arial" font-size="10" fill="#C8A84B" opacity="0.9">✦</text>
  <text x="40" y="90" font-family="Arial" font-size="8" fill="#C8A84B" opacity="0.7">✦</text>
  <text x="350" y="80" font-family="Arial" font-size="8" fill="#C8A84B" opacity="0.7">✦</text>
  <!-- Ground -->
    <line x1="30" y1="285" x2="370" y2="285" stroke="rgba(255,255,255,0.3)" stroke-width="1.5"/>

</svg>