<svg xmlns="http://www.w3.org/2000/svg" viewBox="0 0 400 320" width="400" height="320">
  <defs>
    <filter id="glow">
      <feGaussianBlur stdDeviation="2" result="coloredBlur"/>
      <feMerge><feMergeNode in="coloredBlur"/><feMergeNode in="SourceGraphic"/></feMerge>
    </filter>
  </defs>
  <!-- Background -->
  <rect width="400" height="320" fill="#1F3F6B"/>
  <!-- Subtle grid texture -->
  <pattern id="grid" width="40" height="40" patternUnits="userSpaceOnUse">
    <path d="M 40 0 L 0 0 0 40" fill="none" stroke="rgba(255,255,255,0.04)" stroke-width="0.5"/>
  </pattern>
  <rect width="400" height="320" fill="url(#grid)"/>

  <!-- Park in foreground -->
  <ellipse cx="200" cy="270" rx="180" ry="25" fill="rgba(255,255,255,0.06)"/>
  <!-- IT tower left (commercial) -->
  <rect x="45" y="100" width="80" height="178" fill="rgba(255,255,255,0.1)" stroke="#FFFFFF" stroke-width="1.5" rx="2"/>
  <!-- glass curtain effect -->
  <line x1="65" y1="100" x2="65" y2="278" stroke="rgba(255,255,255,0.1)" stroke-width="1"/>
  <line x1="85" y1="100" x2="85" y2="278" stroke="rgba(255,255,255,0.1)" stroke-width="1"/>
  <line x1="105" y1="100" x2="105" y2="278" stroke="rgba(255,255,255,0.1)" stroke-width="1"/>
  
  <rect x="52" y="108" width="20" height="13" fill="rgba(200,168,75,0.9)" rx="1"/>
  <rect x="75" y="108" width="20" height="13" fill="rgba(200,168,75,0.9)" rx="1"/>
  <rect x="98" y="108" width="20" height="13" fill="rgba(255,255,255,0.7)" rx="1"/>
  <rect x="52" y="124" width="20" height="13" fill="rgba(255,255,255,0.7)" rx="1"/>
  <rect x="75" y="124" width="20" height="13" fill="rgba(255,255,255,0.7)" rx="1"/>
  <rect x="98" y="124" width="20" height="13" fill="rgba(200,168,75,0.9)" rx="1"/>
  <rect x="52" y="140" width="20" height="13" fill="rgba(255,255,255,0.7)" rx="1"/>
  <rect x="75" y="140" width="20" height="13" fill="rgba(200,168,75,0.9)" rx="1"/>
  <rect x="98" y="140" width="20" height="13" fill="rgba(255,255,255,0.7)" rx="1"/>
  <rect x="52" y="156" width="20" height="13" fill="rgba(200,168,75,0.9)" rx="1"/>
  <rect x="75" y="156" width="20" height="13" fill="rgba(255,255,255,0.7)" rx="1"/>
  <rect x="98" y="156" width="20" height="13" fill="rgba(200,168,75,0.9)" rx="1"/>
  <rect x="52" y="172" width="20" height="13" fill="rgba(255,255,255,0.7)" rx="1"/>
  <rect x="75" y="172" width="20" height="13" fill="rgba(255,255,255,0.7)" rx="1"/>
  <rect x="98" y="172" width="20" height="13" fill="rgba(255,255,255,0.7)" rx="1"/>
  <rect x="52" y="188" width="20" height="13" fill="rgba(255,255,255,0.7)" rx="1"/>
  <rect x="75" y="188" width="20" height="13" fill="rgba(255,255,255,0.7)" rx="1"/>
  <rect x="98" y="188" width="20" height="13" fill="rgba(255,255,255,0.7)" rx="1"/>
  <rect x="52" y="204" width="20" height="13" fill="rgba(255,255,255,0.7)" rx="1"/>
  <rect x="75" y="204" width="20" height="13" fill="rgba(255,255,255,0.7)" rx="1"/>
  <rect x="98" y="204" width="20" height="13" fill="rgba(255,255,255,0.7)" rx="1"/>
  <rect x="52" y="220" width="20" height="13" fill="rgba(255,255,255,0.7)" rx="1"/>
  <rect x="75" y="220" width="20" height="13" fill="rgba(255,255,255,0.7)" rx="1"/>
  <rect x="98" y="220" width="20" height="13" fill="rgba(255,255,255,0.7)" rx="1"/>
  <rect x="52" y="236" width="20" height="13" fill="rgba(255,255,255,0.7)" rx="1"/>
  <rect x="75" y="236" width="20" height="13" fill="rgba(255,255,255,0.7)" rx="1"/>
  <rect x="98" y="236" width="20" height="13" fill="rgba(255,255,255,0.7)" rx="1"/>
  <rect x="52" y="252" width="20" height="13" fill="rgba(255,255,255,0.7)" rx="1"/>
  <rect x="75" y="252" width="20" height="13" fill="rgba(255,255,255,0.7)" rx="1"/>
  <rect x="98" y="252" width="20" height="13" fill="rgba(255,255,255,0.7)" rx="1"/>
  <!-- IT tower right (commercial) -->
  <rect x="275" y="100" width="80" height="178" fill="rgba(255,255,255,0.1)" stroke="#FFFFFF" stroke-width="1.5" rx="2"/>
  <line x1="295" y1="100" x2="295" y2="278" stroke="rgba(255,255,255,0.1)" stroke-width="1"/>
  <line x1="315" y1="100" x2="315" y2="278" stroke="rgba(255,255,255,0.1)" stroke-width="1"/>
  <line x1="335" y1="100" x2="335" y2="278" stroke="rgba(255,255,255,0.1)" stroke-width="1"/>
  
  <rect x="282" y="108" width="20" height="13" fill="rgba(200,168,75,0.9)" rx="1"/>
  <rect x="305" y="108" width="20" height="13" fill="rgba(200,168,75,0.9)" rx="1"/>
  <rect x="328" y="108" width="20" height="13" fill="rgba(255,255,255,0.7)" rx="1"/>
  <rect x="282" y="124" width="20" height="13" fill="rgba(255,255,255,0.7)" rx="1"/>
  <rect x="305" y="124" width="20" height="13" fill="rgba(255,255,255,0.7)" rx="1"/>
  <rect x="328" y="124" width="20" height="13" fill="rgba(200,168,75,0.9)" rx="1"/>
  <rect x="282" y="140" width="20" height="13" fill="rgba(255,255,255,0.7)" rx="1"/>
  <rect x="305" y="140" width="20" height="13" fill="rgba(200,168,75,0.9)" rx="1"/>
  <rect x="328" y="140" width="20" height="13" fill="rgba(255,255,255,0.7)" rx="1"/>
  <rect x="282" y="156" width="20" height="13" fill="rgba(200,168,75,0.9)" rx="1"/>
  <rect x="305" y="156" width="20" height="13" fill="rgba(255,255,255,0.7)" rx="1"/>
  <rect x="328" y="156" width="20" height="13" fill="rgba(200,168,75,0.9)" rx="1"/>
  <rect x="282" y="172" width="20" height="13" fill="rgba(255,255,255,0.7)" rx="1"/>
  <rect x="305" y="172" width="20" height="13" fill="rgba(255,255,255,0.7)" rx="1"/>
  <rect x="328" y="172" width="20" height="13" fill="rgba(255,255,255,0.7)" rx="1"/>
  <rect x="282" y="188" width="20" height="13" fill="rgba(255,255,255,0.7)" rx="1"/>
  <rect x="305" y="188" width="20" height="13" fill="rgba(255,255,255,0.7)" rx="1"/>
  <rect x="328" y="188" width="20" height="13" fill="rgba(255,255,255,0.7)" rx="1"/>
  <rect x="282" y="204" width="20" height="13" fill="rgba(255,255,255,0.7)" rx="1"/>
  <rect x="305" y="204" width="20" height="13" fill="rgba(255,255,255,0.7)" rx="1"/>
  <rect x="328" y="204" width="20" height="13" fill="rgba(255,255,255,0.7)" rx="1"/>
  <rect x="282" y="220" width="20" height="13" fill="rgba(255,255,255,0.7)" rx="1"/>
  <rect x="305" y="220" width="20" height="13" fill="rgba(255,255,255,0.7)" rx="1"/>
  <rect x="328" y="220" width="20" height="13" fill="rgba(255,255,255,0.7)" rx="1"/>
  <rect x="282" y="236" width="20" height="13" fill="rgba(255,255,255,0.7)" rx="1"/>
  <rect x="305" y="236" width="20" height="13" fill="rgba(255,255,255,0.7)" rx="1"/>
  <rect x="328" y="236" width="20" height="13" fill="rgba(255,255,255,0.7)" rx="1"/>
  <rect x="282" y="252" width="20" height="13" fill="rgba(255,255,255,0.7)" rx="1"/>
  <rect x="305" y="252" width="20" height="13" fill="rgba(255,255,255,0.7)" rx="1"/>
  <rect x="328" y="252" width="20" height="13" fill="rgba(255,255,255,0.7)" rx="1"/>
  <!-- Central residential tower -->
  <rect x="155" y="68" width="90" height="210" fill="rgba(255,255,255,0.13)" stroke="#FFFFFF" stroke-width="2" rx="3"/>
  
  <rect x="163" y="76" width="16" height="13" fill="rgba(200,168,75,0.9)" rx="1"/>
  <rect x="182" y="76" width="16" height="13" fill="rgba(200,168,75,0.9)" rx="1"/>
  <rect x="201" y="76" width="16" height="13" fill="rgba(255,255,255,0.7)" rx="1"/>
  <rect x="220" y="76" width="16" height="13" fill="rgba(255,255,255,0.7)" rx="1"/>
  <rect x="163" y="92" width="16" height="13" fill="rgba(255,255,255,0.7)" rx="1"/>
  <rect x="182" y="92" width="16" height="13" fill="rgba(255,255,255,0.7)" rx="1"/>
  <rect x="201" y="92" width="16" height="13" fill="rgba(200,168,75,0.9)" rx="1"/>
  <rect x="220" y="92" width="16" height="13" fill="rgba(255,255,255,0.7)" rx="1"/>
  <rect x="163" y="108" width="16" height="13" fill="rgba(255,255,255,0.7)" rx="1"/>
  <rect x="182" y="108" width="16" height="13" fill="rgba(200,168,75,0.9)" rx="1"/>
  <rect x="201" y="108" width="16" height="13" fill="rgba(255,255,255,0.7)" rx="1"/>
  <rect x="220" y="108" width="16" height="13" fill="rgba(255,255,255,0.7)" rx="1"/>
  <rect x="163" y="124" width="16" height="13" fill="rgba(200,168,75,0.9)" rx="1"/>
  <rect x="182" y="124" width="16" height="13" fill="rgba(255,255,255,0.7)" rx="1"/>
  <rect x="201" y="124" width="16" height="13" fill="rgba(200,168,75,0.9)" rx="1"/>
  <rect x="220" y="124" width="16" height="13" fill="rgba(255,255,255,0.7)" rx="1"/>
  <rect x="163" y="140" width="16" height="13" fill="rgba(255,255,255,0.7)" rx="1"/>
  <rect x="182" y="140" width="16" height="13" fill="rgba(255,255,255,0.7)" rx="1"/>
  <rect x="201" y="140" width="16" height="13" fill="rgba(255,255,255,0.7)" rx="1"/>
  <rect x="220" y="140" width="16" height="13" fill="rgba(255,255,255,0.7)" rx="1"/>
  <rect x="163" y="156" width="16" height="13" fill="rgba(255,255,255,0.7)" rx="1"/>
  <rect x="182" y="156" width="16" height="13" fill="rgba(255,255,255,0.7)" rx="1"/>
  <rect x="201" y="156" width="16" height="13" fill="rgba(255,255,255,0.7)" rx="1"/>
  <rect x="220" y="156" width="16" height="13" fill="rgba(255,255,255,0.7)" rx="1"/>
  <rect x="163" y="172" width="16" height="13" fill="rgba(255,255,255,0.7)" rx="1"/>
  <rect x="182" y="172" width="16" height="13" fill="rgba(255,255,255,0.7)" rx="1"/>
  <rect x="201" y="172" width="16" height="13" fill="rgba(255,255,255,0.7)" rx="1"/>
  <rect x="220" y="172" width="16" height="13" fill="rgba(255,255,255,0.7)" rx="1"/>
  <rect x="163" y="188" width="16" height="13" fill="rgba(255,255,255,0.7)" rx="1"/>
  <rect x="182" y="188" width="16" height="13" fill="rgba(255,255,255,0.7)" rx="1"/>
  <rect x="201" y="188" width="16" height="13" fill="rgba(255,255,255,0.7)" rx="1"/>
  <rect x="220" y="188" width="16" height="13" fill="rgba(255,255,255,0.7)" rx="1"/>
  <rect x="163" y="204" width="16" height="13" fill="rgba(255,255,255,0.7)" rx="1"/>
  <rect x="182" y="204" width="16" height="13" fill="rgba(255,255,255,0.7)" rx="1"/>
  <rect x="201" y="204" width="16" height="13" fill="rgba(255,255,255,0.7)" rx="1"/>
  <rect x="220" y="204" width="16" height="13" fill="rgba(255,255,255,0.7)" rx="1"/>
  <rect x="163" y="220" width="16" height="13" fill="rgba(255,255,255,0.7)" rx="1"/>
  <rect x="182" y="220" width="16" height="13" fill="rgba(255,255,255,0.7)" rx="1"/>
  <rect x="201" y="220" width="16" height="13" fill="rgba(255,255,255,0.7)" rx="1"/>
  <rect x="220" y="220" width="16" height="13" fill="rgba(255,255,255,0.7)" rx="1"/>
  <rect x="163" y="236" width="16" height="13" fill="rgba(255,255,255,0.7)" rx="1"/>
  <rect x="182" y="236" width="16" height="13" fill="rgba(255,255,255,0.7)" rx="1"/>
  <rect x="201" y="236" width="16" height="13" fill="rgba(255,255,255,0.7)" rx="1"/>
  <rect x="220" y="236" width="16" height="13" fill="rgba(255,255,255,0.7)" rx="1"/>
  <rect x="163" y="252" width="16" height="13" fill="rgba(255,255,255,0.7)" rx="1"/>
  <rect x="182" y="252" width="16" height="13" fill="rgba(255,255,255,0.7)" rx="1"/>
  <rect x="201" y="252" width="16" height="13" fill="rgba(255,255,255,0.7)" rx="1"/>
  <rect x="220" y="252" width="16" height="13" fill="rgba(255,255,255,0.7)" rx="1"/>
  <!-- Rooftop helipad / observation deck -->
  <rect x="165" y="58" width="70" height="12" fill="rgba(255,255,255,0.2)" stroke="#FFFFFF" stroke-width="1.5"/>
  <circle cx="200" cy="64" r="8" fill="none" stroke="#C8A84B" stroke-width="1.5"/>
  <line x1="192" y1="64" x2="208" y2="64" stroke="#C8A84B" stroke-width="1"/>
  <line x1="200" y1="56" x2="200" y2="72" stroke="#C8A84B" stroke-width="1"/>
  <!-- Park pathway in foreground -->
  <path d="M130,278 Q200,260 270,278" fill="none" stroke="rgba(255,255,255,0.25)" stroke-width="2" stroke-dasharray="6,4"/>
  <!-- Park trees foreground -->
  
  <rect x="113" y="258.0" width="4" height="12.0" fill="rgba(255,255,255,0.5)"/>
  <polygon points="115,222 105.0,258.0 125.0,258.0" fill="rgba(255,255,255,0.7)"/>
  <polygon points="115,229.2 106.0,248.4 124.0,248.4" fill="rgba(255,255,255,0.5)"/>
  
  <rect x="143" y="254.5" width="4" height="10.5" fill="rgba(255,255,255,0.5)"/>
  <polygon points="145,223 136.0,254.5 154.0,254.5" fill="rgba(255,255,255,0.7)"/>
  <polygon points="145,229.3 136.9,246.1 153.1,246.1" fill="rgba(255,255,255,0.5)"/>
  
  <rect x="253" y="254.5" width="4" height="10.5" fill="rgba(255,255,255,0.5)"/>
  <polygon points="255,223 246.0,254.5 264.0,254.5" fill="rgba(255,255,255,0.7)"/>
  <polygon points="255,229.3 246.9,246.1 263.1,246.1" fill="rgba(255,255,255,0.5)"/>
  
  <rect x="283" y="258.0" width="4" height="12.0" fill="rgba(255,255,255,0.5)"/>
  <polygon points="285,222 275.0,258.0 295.0,258.0" fill="rgba(255,255,255,0.7)"/>
  <polygon points="285,229.2 276.0,248.4 294.0,248.4" fill="rgba(255,255,255,0.5)"/>
  <!-- Street lamps -->
  <line x1="185" y1="250" x2="185" y2="278" stroke="rgba(255,255,255,0.5)" stroke-width="1.5"/>
  <circle cx="185" cy="248" r="3" fill="#C8A84B"/>
  <line x1="215" y1="250" x2="215" y2="278" stroke="rgba(255,255,255,0.5)" stroke-width="1.5"/>
  <circle cx="215" cy="248" r="3" fill="#C8A84B"/>
  <!-- Sign -->
  <rect x="152" y="110" width="96" height="20" fill="#C8A84B" rx="2"/>
  <text x="200" y="122" text-anchor="middle" font-family="Georgia,serif" font-size="8" fill="#1F3F6B" font-weight="bold" letter-spacing="1">PARK DISTRICT</text>
  <text x="200" y="132" text-anchor="middle" font-family="Arial,sans-serif" font-size="6.5" fill="#1F3F6B">HINJEWADI · 100 ACRES</text>
  <!-- Ground -->
    <line x1="30" y1="280" x2="370" y2="280" stroke="rgba(255,255,255,0.3)" stroke-width="1.5"/>

</svg>