<svg xmlns="http://www.w3.org/2000/svg" viewBox="0 0 400 320" width="400" height="320">
  <defs>
    <filter id="glow">
      <feGaussianBlur stdDeviation="2" result="coloredBlur"/>
      <feMerge><feMergeNode in="coloredBlur"/><feMergeNode in="SourceGraphic"/></feMerge>
    </filter>
  </defs>
  <!-- Background -->
  <rect width="400" height="320" fill="#1F3F6B"/>
  <!-- Subtle grid texture -->
  <pattern id="grid" width="40" height="40" patternUnits="userSpaceOnUse">
    <path d="M 40 0 L 0 0 0 40" fill="none" stroke="rgba(255,255,255,0.04)" stroke-width="0.5"/>
  </pattern>
  <rect width="400" height="320" fill="url(#grid)"/>

  <!-- Building silhouette background -->
  <rect x="260" y="130" width="70" height="150" fill="rgba(255,255,255,0.07)" stroke="rgba(255,255,255,0.2)" stroke-width="1" rx="2"/>
  
  <rect x="268" y="138" width="14" height="13" fill="rgba(200,168,75,0.9)" rx="1"/>
  <rect x="286" y="138" width="14" height="13" fill="rgba(200,168,75,0.9)" rx="1"/>
  <rect x="304" y="138" width="14" height="13" fill="rgba(255,255,255,0.7)" rx="1"/>
  <rect x="268" y="155" width="14" height="13" fill="rgba(255,255,255,0.7)" rx="1"/>
  <rect x="286" y="155" width="14" height="13" fill="rgba(255,255,255,0.7)" rx="1"/>
  <rect x="304" y="155" width="14" height="13" fill="rgba(200,168,75,0.9)" rx="1"/>
  <rect x="268" y="172" width="14" height="13" fill="rgba(255,255,255,0.7)" rx="1"/>
  <rect x="286" y="172" width="14" height="13" fill="rgba(200,168,75,0.9)" rx="1"/>
  <rect x="304" y="172" width="14" height="13" fill="rgba(255,255,255,0.7)" rx="1"/>
  <rect x="268" y="189" width="14" height="13" fill="rgba(200,168,75,0.9)" rx="1"/>
  <rect x="286" y="189" width="14" height="13" fill="rgba(255,255,255,0.7)" rx="1"/>
  <rect x="304" y="189" width="14" height="13" fill="rgba(200,168,75,0.9)" rx="1"/>
  <rect x="268" y="206" width="14" height="13" fill="rgba(255,255,255,0.7)" rx="1"/>
  <rect x="286" y="206" width="14" height="13" fill="rgba(255,255,255,0.7)" rx="1"/>
  <rect x="304" y="206" width="14" height="13" fill="rgba(255,255,255,0.7)" rx="1"/>
  <rect x="268" y="223" width="14" height="13" fill="rgba(255,255,255,0.7)" rx="1"/>
  <rect x="286" y="223" width="14" height="13" fill="rgba(255,255,255,0.7)" rx="1"/>
  <rect x="304" y="223" width="14" height="13" fill="rgba(255,255,255,0.7)" rx="1"/>
  <rect x="268" y="240" width="14" height="13" fill="rgba(255,255,255,0.7)" rx="1"/>
  <rect x="286" y="240" width="14" height="13" fill="rgba(255,255,255,0.7)" rx="1"/>
  <rect x="304" y="240" width="14" height="13" fill="rgba(255,255,255,0.7)" rx="1"/>
  <rect x="268" y="257" width="14" height="13" fill="rgba(255,255,255,0.7)" rx="1"/>
  <rect x="286" y="257" width="14" height="13" fill="rgba(255,255,255,0.7)" rx="1"/>
  <rect x="304" y="257" width="14" height="13" fill="rgba(255,255,255,0.7)" rx="1"/>
  <rect x="315" y="155" width="50" height="125" fill="rgba(255,255,255,0.05)" stroke="rgba(255,255,255,0.15)" stroke-width="1" rx="2"/>
  <!-- Chart bars growing left to right -->
  <!-- Bar labels (years) -->
  <text x="68" y="270" text-anchor="middle" font-family="Arial,sans-serif" font-size="7.5" fill="rgba(255,255,255,0.6)">2018</text>
  <text x="108" y="270" text-anchor="middle" font-family="Arial,sans-serif" font-size="7.5" fill="rgba(255,255,255,0.6)">2019</text>
  <text x="148" y="270" text-anchor="middle" font-family="Arial,sans-serif" font-size="7.5" fill="rgba(255,255,255,0.6)">2020</text>
  <text x="188" y="270" text-anchor="middle" font-family="Arial,sans-serif" font-size="7.5" fill="rgba(255,255,255,0.6)">2021</text>
  <text x="228" y="270" text-anchor="middle" font-family="Arial,sans-serif" font-size="7.5" fill="rgba(255,255,255,0.7)" font-weight="bold">2022</text>
  <!-- Bar 2018: 350 -->
  <rect x="50" y="200" width="36" height="62" fill="rgba(255,255,255,0.2)" stroke="rgba(255,255,255,0.3)" stroke-width="1" rx="2 2 0 0"/>
  <text x="68" y="197" text-anchor="middle" font-family="Arial,sans-serif" font-size="6.5" fill="rgba(255,255,255,0.6)">350Cr</text>
  <!-- Bar 2019: 480 -->
  <rect x="90" y="183" width="36" height="79" fill="rgba(255,255,255,0.25)" stroke="rgba(255,255,255,0.3)" stroke-width="1" rx="2 2 0 0"/>
  <text x="108" y="180" text-anchor="middle" font-family="Arial,sans-serif" font-size="6.5" fill="rgba(255,255,255,0.6)">480Cr</text>
  <!-- Bar 2020: 540 -->
  <rect x="130" y="170" width="36" height="92" fill="rgba(255,255,255,0.3)" stroke="rgba(255,255,255,0.35)" stroke-width="1" rx="2 2 0 0"/>
  <text x="148" y="167" text-anchor="middle" font-family="Arial,sans-serif" font-size="6.5" fill="rgba(255,255,255,0.6)">540Cr</text>
  <!-- Bar 2021: 720 -->
  <rect x="170" y="145" width="36" height="117" fill="rgba(255,255,255,0.35)" stroke="rgba(255,255,255,0.4)" stroke-width="1" rx="2 2 0 0"/>
  <text x="188" y="142" text-anchor="middle" font-family="Arial,sans-serif" font-size="6.5" fill="rgba(255,255,255,0.7)">720Cr</text>
  <!-- Bar 2022: 1000 Cr - GOLD highlight -->
  <rect x="210" y="100" width="36" height="162" fill="#C8A84B" stroke="#C8A84B" stroke-width="1" rx="2 2 0 0" opacity="0.9"/>
  <!-- Glow on gold bar -->
  <rect x="210" y="100" width="36" height="162" fill="none" stroke="rgba(255,255,255,0.5)" stroke-width="2" rx="2 2 0 0"/>
  <text x="228" y="95" text-anchor="middle" font-family="Georgia,serif" font-size="9" fill="#FFFFFF" font-weight="bold">₹1000</text>
  <text x="228" y="106" text-anchor="middle" font-family="Arial,sans-serif" font-size="6.5" fill="#FFFFFF">CRORE</text>
  <!-- Upward arrow on top of gold bar -->
  <polygon points="228,88 222,100 234,100" fill="#FFFFFF"/>
  <!-- Baseline -->
  <line x1="40" y1="262" x2="255" y2="262" stroke="rgba(255,255,255,0.4)" stroke-width="1.5"/>
  <!-- Y-axis -->
  <line x1="40" y1="262" x2="40" y2="88" stroke="rgba(255,255,255,0.3)" stroke-width="1"/>
  <!-- Milestone label -->
  <rect x="55" y="45" width="160" height="30" fill="rgba(200,168,75,0.15)" stroke="#C8A84B" stroke-width="1.5" rx="4"/>
  <text x="135" y="62" text-anchor="middle" font-family="Georgia,serif" font-size="11" fill="#C8A84B" font-weight="bold">MILESTONE ACHIEVED</text>
  <text x="135" y="74" text-anchor="middle" font-family="Arial,sans-serif" font-size="7" fill="rgba(255,255,255,0.7)" letter-spacing="2">ANNUAL TURNOVER · ₹1,000 CRORE</text>
  <!-- Ground -->
    <line x1="30" y1="285" x2="370" y2="285" stroke="rgba(255,255,255,0.3)" stroke-width="1.5"/>

</svg>